<?xml version="1.0" encoding="UTF-8" standalone="no"?>
<!-- Created with Inkscape (http://www.inkscape.org/) -->

<svg
   xmlns:dc="http://purl.org/dc/elements/1.1/"
   xmlns:cc="http://creativecommons.org/ns#"
   xmlns:rdf="http://www.w3.org/1999/02/22-rdf-syntax-ns#"
   xmlns:svg="http://www.w3.org/2000/svg"
   xmlns="http://www.w3.org/2000/svg"
   xmlns:xlink="http://www.w3.org/1999/xlink"
   xmlns:inkscape="http://www.inkscape.org/namespaces/inkscape"
   version="1.1"
   width="16"
   height="16"
   id="svg4046">
  <defs
     id="defs4048">
    <linearGradient
       x1="16.626165"
       y1="15.298182"
       x2="20.054544"
       y2="24.627615"
       id="linearGradient3991"
       xlink:href="#linearGradient8265-821-176-38-919-66-249-48-321"
       gradientUnits="userSpaceOnUse"
       gradientTransform="matrix(0.21768706,0,0,0.42875064,2.77551,-1.5591055)" />
    <linearGradient
       id="linearGradient8265-821-176-38-919-66-249-48-321">
      <stop
         id="stop5601"
         style="stop-color:#ffffff;stop-opacity:1"
         offset="0" />
      <stop
         id="stop5603"
         style="stop-color:#ffffff;stop-opacity:0"
         offset="1" />
    </linearGradient>
    <linearGradient
       x1="23.99999"
       y1="5.5641499"
       x2="23.99999"
       y2="43"
       id="linearGradient3988"
       xlink:href="#linearGradient3977"
       gradientUnits="userSpaceOnUse"
       gradientTransform="matrix(0.24324324,0,0,0.35135133,2.1621636,-0.43242804)" />
    <linearGradient
       id="linearGradient3977">
      <stop
         id="stop3979"
         style="stop-color:#ffffff;stop-opacity:1"
         offset="0" />
      <stop
         id="stop3981"
         style="stop-color:#ffffff;stop-opacity:0.23529412"
         offset="0.03626217" />
      <stop
         id="stop3983"
         style="stop-color:#ffffff;stop-opacity:0.15686275"
         offset="0.95056331" />
      <stop
         id="stop3985"
         style="stop-color:#ffffff;stop-opacity:0.39215687"
         offset="1" />
    </linearGradient>
    <linearGradient
       x1="24.239185"
       y1="44.110138"
       x2="24.239185"
       y2="0.19081046"
       id="linearGradient3132"
       xlink:href="#linearGradient4106"
       gradientUnits="userSpaceOnUse"
       gradientTransform="matrix(0.352981,0,0,0.3657592,0.9350114,-0.67525404)" />
    <linearGradient
       id="linearGradient4106">
      <stop
         id="stop4108"
         style="stop-color:#51293c;stop-opacity:1"
         offset="0" />
      <stop
         id="stop4110"
         style="stop-color:#876374;stop-opacity:1"
         offset="1" />
    </linearGradient>
    <linearGradient
       x1="75.854454"
       y1="28"
       x2="91"
       y2="12"
       id="linearGradient3130"
       xlink:href="#linearGradient5293"
       gradientUnits="userSpaceOnUse"
       gradientTransform="matrix(0.35042933,0,0,0.28813597,-17.802259,2.4534159)"
       spreadMethod="reflect" />
    <linearGradient
       id="linearGradient5293">
      <stop
         id="stop5295"
         style="stop-color:#ffffff;stop-opacity:1"
         offset="0" />
      <stop
         id="stop5297"
         style="stop-color:#ffffff;stop-opacity:0"
         offset="1" />
    </linearGradient>
    <linearGradient
       x1="75.854454"
       y1="28"
       x2="91"
       y2="12"
       id="linearGradient3128"
       xlink:href="#linearGradient4000"
       gradientUnits="userSpaceOnUse"
       gradientTransform="matrix(0.35042933,0,0,0.28813597,-17.802259,2.8017265)"
       spreadMethod="reflect" />
    <linearGradient
       id="linearGradient4000">
      <stop
         id="stop4002"
         style="stop-color:#000000;stop-opacity:1"
         offset="0" />
      <stop
         id="stop4004"
         style="stop-color:#000000;stop-opacity:0"
         offset="1" />
    </linearGradient>
    <linearGradient
       id="linearGradient4145-42-5">
      <stop
         id="stop4953-6"
         style="stop-color:#e694bb;stop-opacity:1"
         offset="0" />
      <stop
         id="stop4955-9"
         style="stop-color:#d3819a;stop-opacity:1"
         offset="0.26238" />
      <stop
         id="stop4957-3"
         style="stop-color:#b25a64;stop-opacity:1"
         offset="0.704952" />
      <stop
         id="stop4959-7"
         style="stop-color:#98313d;stop-opacity:1"
         offset="1" />
    </linearGradient>
    <linearGradient
       id="linearGradient4711-257-5">
      <stop
         id="stop4963-2"
         style="stop-color:#643340;stop-opacity:1"
         offset="0" />
      <stop
         id="stop4965-5"
         style="stop-color:#a77a86;stop-opacity:1"
         offset="1" />
    </linearGradient>
    <radialGradient
       cx="14.239056"
       cy="11.49049"
       r="18.000002"
       fx="14.239056"
       fy="11.49049"
       id="radialGradient4042"
       xlink:href="#linearGradient4145-42-5"
       gradientUnits="userSpaceOnUse"
       gradientTransform="matrix(0,1.0834925,-1.816687,0,24.708827,-13.135239)" />
    <linearGradient
       x1="-51.786404"
       y1="53.623615"
       x2="-51.786404"
       y2="2.9062471"
       id="linearGradient4044"
       xlink:href="#linearGradient4711-257-5"
       gradientUnits="userSpaceOnUse"
       gradientTransform="matrix(0.2768636,0,0,0.3050233,19.641,-0.68561044)" />
  </defs>
  <metadata
     id="metadata4051">
    <rdf:RDF>
      <cc:Work
         rdf:about="">
        <dc:format>image/svg+xml</dc:format>
        <dc:type
           rdf:resource="http://purl.org/dc/dcmitype/StillImage" />
        <dc:title />
      </cc:Work>
    </rdf:RDF>
  </metadata>
  <g
     id="layer1">
    <path
       d="m 2.4999621,0.49997396 c 2.5206756,0 11.0000629,9.54e-4 11.0000629,9.54e-4 l 1.3e-5,14.99909804 c 0,0 -7.3333841,0 -11.0000759,0 0,-5.000017 0,-10.000035 0,-15.00005204 z"
       inkscape:connector-curvature="0"
       id="path4160"
       style="color:#000000;fill:url(#radialGradient4042);fill-opacity:1;fill-rule:nonzero;stroke:url(#linearGradient4044);stroke-width:0.99992192;stroke-linecap:butt;stroke-linejoin:round;stroke-miterlimit:4;stroke-opacity:1;stroke-dasharray:none;stroke-dashoffset:0;marker:none;visibility:visible;display:inline;overflow:visible;enable-background:accumulate" />
    <path
       d="M 10.715697,6.2593587 C 10.58699,6.2540787 10.458741,6.2600722 10.333304,6.2704407 9.2294504,6.3616887 8.275092,7.0496561 7.9081197,8.1433249 7.681996,8.8172361 7.7271842,9.531095 7.9684977,10.193524 l -4.968498,4.492997 0,0.313479 2.9391346,0 -0.063741,-0.861228 1.6201434,0.332464 0.1911969,-1.540419 1.5195137,0.332464 0.9962377,-0.875491 c 1.017358,0.340483 2.049718,0.166544 2.797514,-0.398957 0,-1.232754 0,-2.4540248 0,-3.6903582 -0.123442,0.032036 -0.266688,0.024112 -0.40252,-0.033246 -0.331607,-0.1400291 -0.518913,-0.5142687 -0.412583,-0.8311614 0.07974,-0.2376679 0.30862,-0.3917247 0.553465,-0.3878757 0.08162,0.00128 0.168674,0.020404 0.251575,0.055411 0.0045,0.00189 0.0056,0.0091 0.01006,0.011082 0,-0.1926424 0,-0.3839389 0,-0.5762721 -0.323969,-0.089924 -0.650119,-0.053337 -0.90567,0.099739 -0.06937,-0.034755 -0.129014,-0.080314 -0.20126,-0.1108212 C 11.502912,6.360579 11.101815,6.2752134 10.715694,6.2593586 z"
       inkscape:connector-curvature="0"
       id="path5316"
       style="opacity:0.1;fill:url(#linearGradient3128);fill-opacity:1;fill-rule:nonzero;stroke:none;stroke-width:0.91176528;marker:none;visibility:visible;display:inline;overflow:visible;enable-background:accumulate" />
    <path
       d="M 10.715697,5.9110481 C 10.58699,5.9057681 10.458741,5.9117613 10.333304,5.9221301 9.2294504,6.0133779 8.275092,6.7013452 7.9081197,7.7950141 7.681996,8.4689253 7.7271842,9.1827842 7.968498,9.845213 L 3,14.373041 C 3,14.373041 3.0135973,15 3.0135973,15 3.9977194,15 4.981837,15 5.96596,15 l -0.090566,-1.209539 1.6201434,0.332465 0.1911969,-1.54042 1.5195137,0.332464 0.996237,-0.87549 c 1.017358,0.340483 2.049718,0.166544 2.797514,-0.398957 0,-1.232756 0,-2.4540253 0,-3.6903585 -0.123442,0.032036 -0.266688,0.024112 -0.40252,-0.033246 -0.331607,-0.1400289 -0.518913,-0.5142691 -0.412583,-0.8311614 0.07974,-0.2376681 0.30862,-0.3917244 0.553465,-0.3878759 0.08162,0.00128 0.168674,0.020404 0.251575,0.055411 0.0045,0.00189 0.0056,0.0091 0.01006,0.011082 0,-0.192642 0,-0.3839386 0,-0.5762721 C 12.676031,6.098178 12.349881,6.1347644 12.09433,6.2878411 12.024957,6.2530865 11.965316,6.2075274 11.89307,6.1770194 11.502916,6.0122684 11.101819,5.9269028 10.715698,5.911048 z"
       inkscape:connector-curvature="0"
       id="path5283"
       style="opacity:0.4;fill:url(#linearGradient3130);fill-opacity:1;fill-rule:nonzero;stroke:none;stroke-width:0.91176528;marker:none;visibility:visible;display:inline;overflow:visible;enable-background:accumulate" />
    <path
       d="M 9.8538692,13 C 9.6785623,12.367847 9.5032553,11.632151 9.3279488,11 8.4444028,11 7.5608568,11 6.6773103,11 6.5002505,11.632151 6.3231907,12.367847 6.1461308,13 5.5974207,13 5.0487105,13 4.5,13 5.3327075,10.333333 6.1654146,7.6666655 6.9981218,4.9999996 c 0.6644127,0 1.3288253,0 1.9932376,0 C 9.8275731,7.6666655 10.663787,10.333333 11.5,13 10.95129,13 10.402579,13 9.8538692,13 z M 8.9492864,9.9999996 C 8.7591862,9.1758306 8.0737643,6.2416235 8,5.9999996 c -0.2448833,1.1339705 -0.620346,2.8833614 -0.9282494,4 0.6258452,0 1.2516903,0 1.8775358,0 z"
       inkscape:connector-curvature="0"
       id="path3477"
       style="font-size:30.51395607px;font-style:normal;font-variant:normal;font-weight:bold;font-stretch:normal;opacity:0.4;fill:#ffffff;fill-opacity:1;stroke:none;font-family:Droid Sans;-inkscape-font-specification:Droid Sans Bold" />
    <path
       d="M 9.8538692,12 C 9.6785623,11.367847 9.5032553,10.632151 9.3279488,9.9999996 c -0.883546,0 -1.767092,0 -2.6506385,0 C 6.5002505,10.632151 6.3231907,11.367847 6.1461308,12 5.5974207,12 5.0487105,12 4.5,12 5.3327075,9.3333324 6.1654146,6.6666655 6.9981218,3.9999996 c 0.6644127,0 1.3288253,0 1.9932376,0 C 9.8275731,6.6666655 10.663787,9.3333324 11.5,12 10.95129,12 10.402579,12 9.8538692,12 z M 8.9492864,8.9999996 C 8.7591862,8.1758306 8.0737643,5.2416235 8,4.9999996 c -0.2448833,1.1339705 -0.620346,2.8833614 -0.9282494,4 0.6258452,0 1.2516903,0 1.8775358,0 z"
       inkscape:connector-curvature="0"
       id="text3893"
       style="font-size:30.51395607px;font-style:normal;font-variant:normal;font-weight:bold;font-stretch:normal;fill:url(#linearGradient3132);fill-opacity:1;stroke:none;font-family:Droid Sans;-inkscape-font-specification:Droid Sans Bold" />
    <path
       d="m 12.5,14.5 -9.0000001,0 0,-13 L 12.5,1.5 z"
       inkscape:connector-curvature="0"
       id="rect6741-1"
       style="opacity:0.5;fill:none;stroke:url(#linearGradient3988);stroke-width:1;stroke-linecap:round;stroke-linejoin:miter;stroke-miterlimit:4;stroke-opacity:1;stroke-dasharray:none;stroke-dashoffset:0" />
    <path
       d="m 3,1 0,7.7979022 c 6.18e-4,0.05771 0.01345,0.1122853 0.03543,0.1504767 0.02198,0.038191 0.05107,0.056507 0.08022,0.0505 l 9.795918,-3.0548486 c 0.05039,-0.015652 0.08773,-0.1005123 0.08844,-0.2009769 l 0,-4.743053 z"
       inkscape:connector-curvature="0"
       id="path3879"
       style="opacity:0.2;fill:url(#linearGradient3991);fill-opacity:1;fill-rule:evenodd;stroke:none" />
  </g>
</svg>
