<?xml version="1.0" encoding="UTF-8" standalone="no"?>
<!-- Created with Inkscape (http://www.inkscape.org/) -->

<svg
   xmlns:dc="http://purl.org/dc/elements/1.1/"
   xmlns:cc="http://creativecommons.org/ns#"
   xmlns:rdf="http://www.w3.org/1999/02/22-rdf-syntax-ns#"
   xmlns:svg="http://www.w3.org/2000/svg"
   xmlns="http://www.w3.org/2000/svg"
   xmlns:xlink="http://www.w3.org/1999/xlink"
   xmlns:inkscape="http://www.inkscape.org/namespaces/inkscape"
   version="1.1"
   width="16"
   height="16"
   id="svg3810">
  <defs
     id="defs3812">
    <linearGradient
       x1="23.99999"
       y1="5.5641499"
       x2="23.99999"
       y2="43"
       id="linearGradient3988"
       xlink:href="#linearGradient3977"
       gradientUnits="userSpaceOnUse"
       gradientTransform="matrix(0.24324324,0,0,0.35135133,2.1621636,-0.43242804)" />
    <linearGradient
       id="linearGradient3977">
      <stop
         id="stop3979"
         style="stop-color:#ffffff;stop-opacity:1"
         offset="0" />
      <stop
         id="stop3981"
         style="stop-color:#ffffff;stop-opacity:0.23529412"
         offset="0.03626217" />
      <stop
         id="stop3983"
         style="stop-color:#ffffff;stop-opacity:0.15686275"
         offset="0.95056331" />
      <stop
         id="stop3985"
         style="stop-color:#ffffff;stop-opacity:0.39215687"
         offset="1" />
    </linearGradient>
    <linearGradient
       x1="24.239185"
       y1="44.110138"
       x2="24.239185"
       y2="0.19081046"
       id="linearGradient3064"
       xlink:href="#linearGradient2508-790"
       gradientUnits="userSpaceOnUse"
       gradientTransform="matrix(0.3536188,0,0,0.3669135,-0.57146904,-0.71524886)" />
    <linearGradient
       id="linearGradient2508-790">
      <stop
         id="stop3686"
         style="stop-color:#294351;stop-opacity:1"
         offset="0" />
      <stop
         id="stop3688"
         style="stop-color:#637a87;stop-opacity:1"
         offset="1" />
    </linearGradient>
    <linearGradient
       x1="26.188938"
       y1="30.4547"
       x2="44.250275"
       y2="16.134642"
       id="linearGradient3068"
       xlink:href="#linearGradient3759"
       gradientUnits="userSpaceOnUse"
       gradientTransform="matrix(0.3237869,0,0,0.3219205,0.23748386,0.88249824)"
       spreadMethod="reflect" />
    <linearGradient
       id="linearGradient3759">
      <stop
         id="stop3761"
         style="stop-color:#000000;stop-opacity:1"
         offset="0" />
      <stop
         id="stop3763"
         style="stop-color:#000000;stop-opacity:0"
         offset="1" />
    </linearGradient>
    <linearGradient
       x1="75.854454"
       y1="28"
       x2="91"
       y2="12"
       id="linearGradient3071"
       xlink:href="#linearGradient5293"
       gradientUnits="userSpaceOnUse"
       gradientTransform="matrix(0.3840831,0,0,0.2965013,-20.298492,2.0701769)"
       spreadMethod="reflect" />
    <linearGradient
       id="linearGradient5293">
      <stop
         id="stop5295"
         style="stop-color:#ffffff;stop-opacity:1"
         offset="0" />
      <stop
         id="stop5297"
         style="stop-color:#ffffff;stop-opacity:0"
         offset="1" />
    </linearGradient>
    <linearGradient
       x1="75.854454"
       y1="28"
       x2="91"
       y2="12"
       id="linearGradient3074"
       xlink:href="#linearGradient4000"
       gradientUnits="userSpaceOnUse"
       gradientTransform="matrix(0.3843887,0,0,0.2958945,-20.354374,2.5013222)"
       spreadMethod="reflect" />
    <linearGradient
       id="linearGradient4000">
      <stop
         id="stop4002"
         style="stop-color:#000000;stop-opacity:1"
         offset="0" />
      <stop
         id="stop4004"
         style="stop-color:#000000;stop-opacity:0"
         offset="1" />
    </linearGradient>
    <radialGradient
       cx="14.239056"
       cy="11.49049"
       r="18.000002"
       fx="14.239056"
       fy="11.49049"
       id="radialGradient3129-5"
       xlink:href="#linearGradient2867-449-88-871-390-598-476-591-434-148-895-534-212-357-729-2"
       gradientUnits="userSpaceOnUse"
       gradientTransform="matrix(0,1.0834925,-1.816687,0,25.208788,-13.135234)" />
    <linearGradient
       id="linearGradient2867-449-88-871-390-598-476-591-434-148-895-534-212-357-729-2">
      <stop
         id="stop8022-5"
         style="stop-color:#85c2cf;stop-opacity:1"
         offset="0" />
      <stop
         id="stop8024-4"
         style="stop-color:#74a4be;stop-opacity:1"
         offset="0.26238" />
      <stop
         id="stop8026-7"
         style="stop-color:#5177a0;stop-opacity:1"
         offset="0.704952" />
      <stop
         id="stop8028-4"
         style="stop-color:#2c5889;stop-opacity:1"
         offset="1" />
    </linearGradient>
    <linearGradient
       x1="-51.786404"
       y1="53.623615"
       x2="-51.786404"
       y2="2.9062471"
       id="linearGradient3131-4"
       xlink:href="#linearGradient2508-3"
       gradientUnits="userSpaceOnUse"
       gradientTransform="matrix(0.2768636,0,0,0.3050233,20.140961,-0.68560536)" />
    <linearGradient
       id="linearGradient2508-3">
      <stop
         id="stop2510-0"
         style="stop-color:#2e4a5a;stop-opacity:1"
         offset="0" />
      <stop
         id="stop2512-7"
         style="stop-color:#6e8796;stop-opacity:1"
         offset="1" />
    </linearGradient>
    <linearGradient
       id="linearGradient8265-821-176-38-919-66-249-48-321">
      <stop
         id="stop5601"
         style="stop-color:#ffffff;stop-opacity:1"
         offset="0" />
      <stop
         id="stop5603"
         style="stop-color:#ffffff;stop-opacity:0"
         offset="1" />
    </linearGradient>
    <linearGradient
       x1="16.626165"
       y1="15.298182"
       x2="20.054544"
       y2="24.627615"
       id="linearGradient3036"
       xlink:href="#linearGradient8265-821-176-38-919-66-249-48-321"
       gradientUnits="userSpaceOnUse"
       gradientTransform="matrix(0.21768706,0,0,0.42875064,2.77551,-1.5591055)" />
  </defs>
  <metadata
     id="metadata3815">
    <rdf:RDF>
      <cc:Work
         rdf:about="">
        <dc:format>image/svg+xml</dc:format>
        <dc:type
           rdf:resource="http://purl.org/dc/dcmitype/StillImage" />
        <dc:title />
      </cc:Work>
    </rdf:RDF>
  </metadata>
  <g
     id="layer1">
    <path
       d="m 2.4999621,0.49997396 c 2.5206756,0 11.0000629,9.54e-4 11.0000629,9.54e-4 l 1.3e-5,14.99909804 c 0,0 -7.3333841,0 -11.0000759,0 0,-5.000017 0,-10.000035 0,-15.00005204 z"
       inkscape:connector-curvature="0"
       id="path4160"
       style="color:#000000;fill:url(#radialGradient3129-5);fill-opacity:1;fill-rule:nonzero;stroke:url(#linearGradient3131-4);stroke-width:0.99992192;stroke-linecap:butt;stroke-linejoin:round;stroke-miterlimit:4;stroke-opacity:1;stroke-dasharray:none;stroke-dashoffset:0;marker:none;visibility:visible;display:inline;overflow:visible;enable-background:accumulate" />
    <path
       d="M 6.3612258,5.3893855 C 5.0752877,7.03693 3.7899303,8.6865659 2.5039922,10.334111 c 0,1.677553 0,3.357258 0,5.034811 3.0545197,0 6.1090171,0 9.1635358,0 0.845094,-1.082737 0.975355,-1.247786 1.845217,-2.362257 0,-1.521306 0,-3.0367671 0,-4.5643623 C 10.988693,7.3643637 8.0002954,6.0893775 6.3612258,5.3893855 z"
       inkscape:connector-curvature="0"
       id="path3743"
       style="opacity:0.1;fill:url(#linearGradient3074);fill-opacity:1;fill-rule:nonzero;stroke:none;stroke-width:0.91176528;marker:none;visibility:visible;display:inline;overflow:visible;enable-background:accumulate" />
    <path
       d="m 6.3541277,5.0000046 c -1.2849156,1.650923 -2.569251,3.3039418 -3.8541667,4.9548645 0,1.6809949 0,3.3641439 0,5.0451359 3.0520911,0 6.1041599,0 9.15625,0 0.844422,-1.084957 0.97458,-1.250345 1.84375,-2.367101 0,-1.524425 0,-3.042994 0,-4.5737217 C 10.977916,6.9790328 7.9918941,5.7014321 6.3541277,5.0000046 z"
       inkscape:connector-curvature="0"
       id="path3697"
       style="opacity:0.4;fill:url(#linearGradient3071);fill-opacity:1;fill-rule:nonzero;stroke:none;stroke-width:0.91176528;marker:none;visibility:visible;display:inline;overflow:visible;enable-background:accumulate" />
    <path
       d="M 6.4809927,6.7615144 12.509757,9.427591 6.4809927,6.7615144 z M 5.838478,7.6139245 12.848669,10.714014 5.838478,7.6139245 z M 5.1858455,8.4797584 7.4291063,9.4717868 5.1858455,8.4797584 z M 4.5433302,9.3321682 11.553522,12.432258 4.5433302,9.3321682 z M 3.8906975,10.198003 10.19987,12.988083 3.8906975,10.198003 z M 3.243124,11.057125 8.9914808,13.599197 3.243124,11.057125 z M 2.6006096,11.909534 9.470597,14.947622 2.6006096,11.909534 z"
       inkscape:connector-curvature="0"
       id="path3475"
       style="opacity:0.1;fill:none;stroke:url(#linearGradient3068);stroke-width:1px;stroke-linecap:butt;stroke-linejoin:miter;stroke-opacity:1" />
    <path
       d="m 12.5,14.5 -9.0000001,0 0,-13 L 12.5,1.5 z"
       inkscape:connector-curvature="0"
       id="rect6741-1"
       style="opacity:0.5;fill:none;stroke:url(#linearGradient3988);stroke-width:1;stroke-linecap:round;stroke-linejoin:miter;stroke-miterlimit:4;stroke-opacity:1;stroke-dasharray:none;stroke-dashoffset:0" />
    <path
       d="m 3,1 0,7.7979022 c 6.18e-4,0.05771 0.01345,0.1122853 0.03543,0.1504767 0.02198,0.038191 0.05107,0.056507 0.08022,0.0505 l 9.795918,-3.0548486 c 0.05039,-0.015652 0.08773,-0.1005123 0.08844,-0.2009769 l 0,-4.743053 z"
       inkscape:connector-curvature="0"
       id="path3879"
       style="opacity:0.2;fill:url(#linearGradient3036);fill-opacity:1;fill-rule:evenodd;stroke:none" />
    <path
       d="m 11.145377,13.000005 c -0.618195,0 -1.2363889,0 -1.8545837,0 C 8.9501028,11.556611 8.5838257,10.119174 8.2607574,8.6716773 8.1576002,8.2158021 8.0489856,7.4357112 7.9884328,7.1546438 7.7911427,8.7166312 7.3621034,10.229452 7.0107141,11.758084 c -0.098773,0.413974 -0.1975447,0.827947 -0.2963168,1.241921 -0.6199513,0 -1.2399021,0 -1.8598523,0 C 4.23635,10.335856 3.618155,7.6717073 2.999961,5.0075592 c 0.535651,0 1.071302,0 1.606954,0 0.42955,2.1953197 0.9151613,4.3797329 1.2539517,6.5929478 C 6.004522,10.555325 6.1853696,9.5156184 6.450165,8.4956888 6.7279157,7.3329792 7.0056666,6.1702692 7.2834173,5.0075592 c 0.4776954,0 0.9553912,0 1.433087,0 0.3646965,1.5420329 0.7433379,3.0807961 1.0991797,4.6249051 0.1266472,0.6527897 0.22723,1.3106477 0.328639,1.9680427 0.319589,-2.1762105 0.806717,-4.3202961 1.225489,-6.4772578 -0.0088,-0.2095841 0.248068,-0.080247 0.37577,-0.11569 0.418126,0 0.836253,0 1.254379,0 -0.618195,2.6641481 -1.236389,5.3282968 -1.854584,7.9924458 z"
       inkscape:connector-curvature="0"
       id="path3494"
       style="font-size:30.51395607px;font-style:normal;font-variant:normal;font-weight:bold;font-stretch:normal;opacity:0.4;fill:#ffffff;fill-opacity:1;stroke:none;font-family:Droid Sans;-inkscape-font-specification:Droid Sans Bold" />
    <path
       d="m 11.145377,12.000005 c -0.618195,0 -1.2363889,0 -1.8545837,0 C 8.9501028,10.556611 8.5838257,9.1191734 8.2607574,7.6716773 8.1576002,7.2158021 8.0489856,6.4357112 7.9884328,6.1546438 7.7911427,7.7166312 7.3621034,9.2294516 7.0107141,10.758084 c -0.098773,0.413974 -0.1975447,0.827947 -0.2963168,1.241921 -0.6199513,0 -1.2399021,0 -1.8598523,0 C 4.23635,9.3358558 3.618155,6.6717073 2.999961,4.0075592 c 0.535651,0 1.071302,0 1.606954,0 0.42955,2.1953197 0.9151613,4.3797329 1.2539517,6.5929478 C 6.004522,9.5553243 6.1853696,8.5156184 6.450165,7.4956888 6.7279157,6.3329792 7.0056666,5.1702692 7.2834173,4.0075592 c 0.4776954,0 0.9553912,0 1.433087,0 0.3646965,1.5420329 0.7433379,3.0807961 1.0991797,4.6249051 0.1266472,0.6527895 0.22723,1.3106471 0.328639,1.9680427 0.319589,-2.1762105 0.806717,-4.3202961 1.225489,-6.4772578 -0.0088,-0.2095841 0.248068,-0.080247 0.37577,-0.11569 0.418126,0 0.836253,0 1.254379,0 -0.618195,2.6641481 -1.236389,5.3282966 -1.854584,7.9924458 z"
       inkscape:connector-curvature="0"
       id="text2612"
       style="font-size:30.51395607px;font-style:normal;font-variant:normal;font-weight:bold;font-stretch:normal;fill:url(#linearGradient3064);fill-opacity:1;stroke:none;font-family:Droid Sans;-inkscape-font-specification:Droid Sans Bold" />
  </g>
</svg>
