<?xml version="1.0" encoding="UTF-8" standalone="no"?>
<!-- Generator: Adobe Illustrator 9.0, SVG Export Plug-In  -->

<svg
   xmlns:dc="http://purl.org/dc/elements/1.1/"
   xmlns:cc="http://creativecommons.org/ns#"
   xmlns:rdf="http://www.w3.org/1999/02/22-rdf-syntax-ns#"
   xmlns:svg="http://www.w3.org/2000/svg"
   xmlns="http://www.w3.org/2000/svg"
   xmlns:xlink="http://www.w3.org/1999/xlink"
   xmlns:sodipodi="http://sodipodi.sourceforge.net/DTD/sodipodi-0.dtd"
   xmlns:inkscape="http://www.inkscape.org/namespaces/inkscape"
   width="16.000002"
   height="16"
   xml:space="preserve"
   id="svg16168"
   sodipodi:version="0.32"
   inkscape:version="0.91 r13725"
   sodipodi:docname="image-jpeg.svg"
   inkscape:output_extension="org.inkscape.output.svg.inkscape"
   version="1.1"><metadata
     id="metadata16236"><rdf:RDF><cc:Work
         rdf:about=""><dc:format>image/svg+xml</dc:format><dc:type
           rdf:resource="http://purl.org/dc/dcmitype/StillImage" /><dc:title>Genric Image</dc:title><dc:creator><cc:Agent><dc:title>Jakub Steiner</dc:title></cc:Agent></dc:creator><dc:subject><rdf:Bag><rdf:li>image</rdf:li><rdf:li>picture</rdf:li><rdf:li>snapshot</rdf:li><rdf:li>photo</rdf:li></rdf:Bag></dc:subject><cc:license
           rdf:resource="http://creativecommons.org/publicdomain/zero/1.0/" /></cc:Work><cc:License
         rdf:about="http://creativecommons.org/publicdomain/zero/1.0/"><cc:permits
           rdf:resource="http://creativecommons.org/ns#Reproduction" /><cc:permits
           rdf:resource="http://creativecommons.org/ns#Distribution" /><cc:permits
           rdf:resource="http://creativecommons.org/ns#DerivativeWorks" /></cc:License></rdf:RDF></metadata><defs
     id="defs16234"><inkscape:perspective
       sodipodi:type="inkscape:persp3d"
       inkscape:vp_x="0 : 24 : 1"
       inkscape:vp_y="0 : 1000 : 0"
       inkscape:vp_z="48 : 24 : 1"
       inkscape:persp3d-origin="24 : 16 : 1"
       id="perspective80" /><radialGradient
       inkscape:collect="always"
       xlink:href="#linearGradient5060"
       id="radialGradient6719"
       gradientUnits="userSpaceOnUse"
       gradientTransform="matrix(-2.774389,0,0,1.969706,112.7623,-872.8854)"
       cx="605.71429"
       cy="486.64789"
       fx="605.71429"
       fy="486.64789"
       r="117.14286" /><linearGradient
       inkscape:collect="always"
       id="linearGradient5060"><stop
         style="stop-color:black;stop-opacity:1;"
         offset="0"
         id="stop5062" /><stop
         style="stop-color:black;stop-opacity:0;"
         offset="1"
         id="stop5064" /></linearGradient><radialGradient
       inkscape:collect="always"
       xlink:href="#linearGradient5060"
       id="radialGradient6717"
       gradientUnits="userSpaceOnUse"
       gradientTransform="matrix(2.774389,0,0,1.969706,-1891.633,-872.8854)"
       cx="605.71429"
       cy="486.64789"
       fx="605.71429"
       fy="486.64789"
       r="117.14286" /><linearGradient
       id="linearGradient5048"><stop
         style="stop-color:black;stop-opacity:0;"
         offset="0"
         id="stop5050" /><stop
         id="stop5056"
         offset="0.5"
         style="stop-color:black;stop-opacity:1;" /><stop
         style="stop-color:black;stop-opacity:0;"
         offset="1"
         id="stop5052" /></linearGradient><linearGradient
       inkscape:collect="always"
       xlink:href="#linearGradient5048"
       id="linearGradient6715"
       gradientUnits="userSpaceOnUse"
       gradientTransform="matrix(2.774389,0,0,1.969706,-1892.179,-872.8854)"
       x1="302.85715"
       y1="366.64789"
       x2="302.85715"
       y2="609.50507" /><linearGradient
       id="linearGradient8171"><stop
         style="stop-color:#bbbdba;stop-opacity:1;"
         offset="0"
         id="stop8173" /><stop
         style="stop-color:#70746e;stop-opacity:1;"
         offset="1"
         id="stop8175" /></linearGradient><linearGradient
       inkscape:collect="always"
       id="linearGradient8155"><stop
         style="stop-color:#ffffff;stop-opacity:1;"
         offset="0"
         id="stop8157" /><stop
         style="stop-color:#ffffff;stop-opacity:0;"
         offset="1"
         id="stop8159" /></linearGradient><linearGradient
       id="linearGradient2224"><stop
         style="stop-color:#7c7c7c;stop-opacity:1;"
         offset="0"
         id="stop2226" /><stop
         style="stop-color:#b8b8b8;stop-opacity:1;"
         offset="1"
         id="stop2228" /></linearGradient><linearGradient
       inkscape:collect="always"
       id="linearGradient2251"><stop
         style="stop-color:#ffffff;stop-opacity:1;"
         offset="0"
         id="stop2253" /><stop
         style="stop-color:#ffffff;stop-opacity:0;"
         offset="1"
         id="stop2255" /></linearGradient><linearGradient
       id="linearGradient7648"
       gradientUnits="userSpaceOnUse"
       x1="21.9326"
       y1="24.627399"
       x2="21.9326"
       y2="7.1090999"><stop
         offset="0"
         style="stop-color:#8595bc;stop-opacity:1;"
         id="stop7650" /><stop
         offset="1"
         style="stop-color:#041a3b;stop-opacity:1;"
         id="stop7652" /></linearGradient><linearGradient
       id="linearGradient2392"><stop
         id="stop2394"
         offset="0.0000000"
         style="stop-color:#715b26;stop-opacity:1.0000000;" /><stop
         id="stop2396"
         offset="1.0000000"
         style="stop-color:#312710;stop-opacity:1.0000000;" /></linearGradient><linearGradient
       inkscape:collect="always"
       id="linearGradient12129"><stop
         style="stop-color:#000000;stop-opacity:1;"
         offset="0"
         id="stop12131" /><stop
         style="stop-color:#000000;stop-opacity:0;"
         offset="1"
         id="stop12133" /></linearGradient><linearGradient
       y2="36.032799"
       x2="31.081301"
       y1="3.7319"
       x1="12.4873"
       gradientUnits="userSpaceOnUse"
       id="aigrd1"><stop
         id="stop16177"
         style="stop-color:#D2D2D2;stroke-dasharray:none;stroke-miterlimit:4.0000000;stroke-width:1.2166667"
         offset="0" /><stop
         id="stop16179"
         style="stop-color:#EDEDED;stroke-dasharray:none;stroke-miterlimit:4.0000000;stroke-width:1.2166667"
         offset="1" /></linearGradient><linearGradient
       y2="22.5769"
       x2="21.9168"
       y1="30.341299"
       x1="21.877001"
       gradientUnits="userSpaceOnUse"
       id="aigrd2"><stop
         id="stop16184"
         style="stop-color:#5e4f07;stop-opacity:1.0000000;"
         offset="0.0000000" /><stop
         id="stop16186"
         style="stop-color:#348a31;stop-opacity:1.0000000;"
         offset="1.0000000" /></linearGradient><linearGradient
       y2="7.1090999"
       x2="21.9326"
       y1="24.627399"
       x1="21.9326"
       gradientUnits="userSpaceOnUse"
       id="aigrd3"><stop
         id="stop16199"
         style="stop-color:#D0D6E5;stroke-dasharray:none;stroke-miterlimit:4.0000000;stroke-width:1.2166667"
         offset="0" /><stop
         id="stop16201"
         style="stop-color:#093A80;stroke-dasharray:none;stroke-miterlimit:4.0000000;stroke-width:1.2166667"
         offset="1" /></linearGradient><radialGradient
       inkscape:collect="always"
       xlink:href="#linearGradient12129"
       id="radialGradient12135"
       cx="24.218407"
       cy="41.63604"
       fx="24.218407"
       fy="41.63604"
       r="22.097088"
       gradientTransform="matrix(1,0,0,0.184,0,33.97501)"
       gradientUnits="userSpaceOnUse" /><linearGradient
       inkscape:collect="always"
       xlink:href="#linearGradient7648"
       id="linearGradient7671"
       gradientUnits="userSpaceOnUse"
       gradientTransform="matrix(1.098989,0,0,-0.797757,-1.953865,37.324)"
       x1="21.9326"
       y1="24.627399"
       x2="21.9326"
       y2="7.1090999" /><linearGradient
       inkscape:collect="always"
       xlink:href="#aigrd3"
       id="linearGradient7673"
       gradientUnits="userSpaceOnUse"
       gradientTransform="matrix(1.098989,0,0,1.106697,-1.953865,-4.922453)"
       x1="21.9326"
       y1="24.627399"
       x2="21.9326"
       y2="7.1090999" /><linearGradient
       inkscape:collect="always"
       xlink:href="#aigrd1"
       id="linearGradient8148"
       gradientUnits="userSpaceOnUse"
       gradientTransform="matrix(0.51951676,0,0,0.35869297,18.599498,0.70417105)"
       x1="12.4873"
       y1="3.7319"
       x2="31.081301"
       y2="36.032799" /><radialGradient
       inkscape:collect="always"
       xlink:href="#linearGradient8155"
       id="radialGradient8161"
       cx="12.700491"
       cy="10.404876"
       fx="12.700491"
       fy="10.404876"
       r="19.96875"
       gradientTransform="matrix(0.61969852,0,0,0.40751513,-4.5468452,1.750952)"
       gradientUnits="userSpaceOnUse" /><linearGradient
       inkscape:collect="always"
       xlink:href="#linearGradient2251"
       id="linearGradient8166"
       gradientUnits="userSpaceOnUse"
       gradientTransform="matrix(0.36228429,0,0,0.36228429,1.5090628,-5.8953306)"
       x1="33.396004"
       y1="36.921333"
       x2="34.170048"
       y2="38.070381" /><linearGradient
       inkscape:collect="always"
       xlink:href="#linearGradient2224"
       id="linearGradient8169"
       gradientUnits="userSpaceOnUse"
       gradientTransform="matrix(0.36228429,0,0,0.36228429,1.5090628,-5.6781521)"
       x1="35.996582"
       y1="40.458221"
       x2="33.664921"
       y2="37.770721" /><linearGradient
       inkscape:collect="always"
       xlink:href="#linearGradient8171"
       id="linearGradient8177"
       x1="42.1875"
       y1="31"
       x2="45"
       y2="39.984692"
       gradientUnits="userSpaceOnUse"
       gradientTransform="matrix(0.36228429,0,0,0.36228429,-0.35582089,-4.5786951)" /></defs><sodipodi:namedview
     inkscape:window-height="1440"
     inkscape:window-width="2560"
     inkscape:pageshadow="2"
     inkscape:pageopacity="0.0"
     borderopacity="0.07058824"
     bordercolor="#666666"
     pagecolor="#ffffff"
     id="base"
     inkscape:zoom="22.627417"
     inkscape:cx="-3.5725904"
     inkscape:cy="2.7093405"
     inkscape:window-x="1680"
     inkscape:window-y="0"
     inkscape:current-layer="svg16168"
     showgrid="false"
     inkscape:showpageshadow="false"
     fit-margin-top="0"
     fit-margin-left="0"
     fit-margin-right="0"
     fit-margin-bottom="0"
     inkscape:window-maximized="0" /><g
     style="display:inline"
     transform="matrix(0.00788009,0,0,0.0090327,15.008833,7.200771)"
     id="g6707"><rect
       style="color:#000000;display:inline;overflow:visible;visibility:visible;opacity:0.40206185;fill:url(#linearGradient6715);fill-opacity:1;fill-rule:nonzero;stroke:none;stroke-width:1;stroke-linecap:round;stroke-linejoin:miter;stroke-miterlimit:4;stroke-dasharray:none;stroke-dashoffset:0;stroke-opacity:1;marker:none;marker-start:none;marker-mid:none;marker-end:none"
       id="rect6709"
       width="1339.6335"
       height="478.35718"
       x="-1559.2523"
       y="-150.69685" /><path
       style="color:#000000;display:inline;overflow:visible;visibility:visible;opacity:0.40206185;fill:url(#radialGradient6717);fill-opacity:1;fill-rule:nonzero;stroke:none;stroke-width:1;stroke-linecap:round;stroke-linejoin:miter;stroke-miterlimit:4;stroke-dasharray:none;stroke-dashoffset:0;stroke-opacity:1;marker:none;marker-start:none;marker-mid:none;marker-end:none"
       d="m -219.61876,-150.68038 c 0,0 0,478.33079 0,478.33079 142.874166,0.90045 345.40022,-107.16966 345.40014,-239.196175 0,-132.026537 -159.436816,-239.134595 -345.40014,-239.134615 z"
       id="path6711"
       sodipodi:nodetypes="cccc"
       inkscape:connector-curvature="0" /><path
       sodipodi:nodetypes="cccc"
       id="path6713"
       d="m -1559.2523,-150.68038 c 0,0 0,478.33079 0,478.33079 -142.8742,0.90045 -345.4002,-107.16966 -345.4002,-239.196175 0,-132.026537 159.4368,-239.134595 345.4002,-239.134615 z"
       style="color:#000000;display:inline;overflow:visible;visibility:visible;opacity:0.40206185;fill:url(#radialGradient6719);fill-opacity:1;fill-rule:nonzero;stroke:none;stroke-width:1;stroke-linecap:round;stroke-linejoin:miter;stroke-miterlimit:4;stroke-dasharray:none;stroke-dashoffset:0;stroke-opacity:1;marker:none;marker-start:none;marker-mid:none;marker-end:none"
       inkscape:connector-curvature="0" /></g><path
     style="color:#000000;display:inline;overflow:visible;visibility:visible;fill:url(#linearGradient8148);fill-opacity:1;fill-rule:nonzero;stroke:#bbbfbb;stroke-width:0.36228427;stroke-linecap:butt;stroke-linejoin:miter;stroke-miterlimit:4;stroke-dashoffset:0;stroke-opacity:1;marker:none;marker-start:none;marker-mid:none;marker-end:none"
     d="m 0.62878502,2.0141402 14.73112098,0 c 0.225794,0 0.40757,0.181776 0.40757,0.40757 l 0,8.6588858 c 0,0.225794 -3.06373,2.905264 -3.289523,2.905264 l -11.84916798,0 c -0.2257934,0 -0.4075694,-0.181777 -0.4075694,-0.40757 l 0,-11.1565798 c 0,-0.225794 0.181776,-0.40757 0.4075694,-0.40757 z"
     id="rect7603"
     sodipodi:nodetypes="ccccccccc"
     inkscape:connector-curvature="0" /><g
     id="g7654"
     transform="matrix(0.38212805,0,0,0.38039452,-0.6509547,1.2978586)"><path
       id="path7644"
       d="m 5.512695,30 34.130539,0 0,-10.372625 -34.130539,0 0,10.372625 z"
       style="fill:url(#linearGradient7671);fill-opacity:1;fill-rule:nonzero;stroke:none;stroke-width:1.2166667;stroke-miterlimit:4"
       inkscape:connector-curvature="0" /><path
       style="fill:url(#linearGradient7673);fill-rule:nonzero;stroke:none;stroke-width:1.2166667;stroke-miterlimit:4"
       d="m 5.512695,5.237844 34.130539,0 0,14.389531 -34.130539,0 0,-14.389531 z"
       id="path16203"
       inkscape:connector-curvature="0" /><g
       id="g16205"
       style="fill-rule:nonzero;stroke:#000000;stroke-width:1.15611064;stroke-miterlimit:4"
       transform="matrix(1.189217,0,0,1.189217,-3.525355,-6.535408)"><g
         id="g16207"><path
           style="opacity:0.04999994;fill:#e8f52f;stroke:none"
           d="m 18.4,15.4 c 0,2.2 -1.8,4.1 -4.1,4.1 -2.2,0 -4.1,-1.8 -4.1,-4.1 0,-2.2 1.8,-4.1 4.1,-4.1 2.2,0 4.1,1.8 4.1,4.1 z"
           id="path16209"
           inkscape:connector-curvature="0" /><path
           style="opacity:0.20829994;fill:#ecf751;stroke:none"
           d="m 18,15.4 c 0,2 -1.6,3.7 -3.7,3.7 -2,0 -3.7,-1.6 -3.7,-3.7 0,-2 1.6,-3.7 3.7,-3.7 2,0 3.7,1.6 3.7,3.7 l 0,0 z"
           id="path16211"
           inkscape:connector-curvature="0" /><path
           style="opacity:0.36669994;fill:#f0f972;stroke:none"
           d="m 17.6,15.4 c 0,1.8 -1.5,3.3 -3.3,3.3 -1.8,0 -3.3,-1.5 -3.3,-3.3 0,-1.8 1.5,-3.3 3.3,-3.3 1.8,0 3.3,1.5 3.3,3.3 l 0,0 z"
           id="path16213"
           inkscape:connector-curvature="0" /><path
           style="opacity:0.525;fill:#f4fa95;stroke:none"
           d="m 17.2,15.4 c 0,1.6 -1.3,2.9 -2.9,2.9 -1.6,0 -2.9,-1.3 -2.9,-2.9 0,-1.6 1.3,-2.9 2.9,-2.9 1.6,0 2.9,1.3 2.9,2.9 z"
           id="path16215"
           inkscape:connector-curvature="0" /><path
           style="opacity:0.6833;fill:#f7fcb7;stroke:none"
           d="m 16.8,15.4 c 0,1.4 -1.1,2.5 -2.5,2.5 -1.4,0 -2.5,-1.1 -2.5,-2.5 0,-1.4 1.1,-2.5 2.5,-2.5 1.4,0 2.5,1.1 2.5,2.5 l 0,0 z"
           id="path16217"
           inkscape:connector-curvature="0" /><path
           style="opacity:0.8417;fill:#fbfddb;stroke:none"
           d="m 16.4,15.4 c 0,1.2 -1,2.1 -2.1,2.1 -1.1,0 -2.1,-1 -2.1,-2.1 0,-1.1 1,-2.1 2.1,-2.1 1.1,0 2.1,1 2.1,2.1 z"
           id="path16219"
           inkscape:connector-curvature="0" /><path
           style="fill:#ffffff;stroke:none"
           d="m 16,15.4 c 0,1 -0.8,1.8 -1.8,1.8 -1,0 -1.8,-0.8 -1.8,-1.8 0,-1 0.8,-1.8 1.8,-1.8 1,0 1.8,0.8 1.8,1.8 l 0,0 z"
           id="path16221"
           inkscape:connector-curvature="0" /></g></g><path
       style="opacity:0.3;fill-rule:nonzero;stroke:none;stroke-width:1.2166667;stroke-miterlimit:4"
       d="m 25.015859,21.649044 8.681289,0 1.664904,0.475688 -2.854121,0 c 0,0 2.854121,0.237842 4.281184,2.021669 1.427059,1.664904 -1.664905,3.686575 -1.664905,3.686575 0,0 0,0 0,0 -0.118922,-0.356766 -0.832454,-3.210889 -2.259514,-4.400106 -1.070297,-0.951374 -2.259514,-1.189218 -2.259514,-1.189218 l -5.589323,0 0,-0.475686 0,-0.118922 z"
       id="path16223"
       inkscape:connector-curvature="0" /><path
       style="opacity:0.3;fill-rule:nonzero;stroke:none;stroke-width:1.2166667;stroke-miterlimit:4"
       d="m 30.724106,22.362574 -4.994715,0 9.275897,5.232557 -4.281182,-5.232557 0,0 z"
       id="path16225"
       inkscape:connector-curvature="0" /><path
       style="fill:#515151;fill-rule:nonzero;stroke:none;stroke-width:1.2166667;stroke-miterlimit:4"
       d="m 25.015859,21.767966 8.681289,0 1.30814,-0.832453 -2.854121,0 c 0,0 2.616276,-0.475686 2.973043,-3.448731 0.356763,-2.973043 -4.043341,-6.302851 -4.043341,-6.302851 0,0 0,0 0,0.118922 0.118921,0.71353 1.308138,5.708243 0.475688,7.610993 -0.356767,1.664901 -1.427062,2.021667 -1.427062,2.021667 l -5.470401,0 0.237844,0.832453 0.118921,0 z"
       id="path16227"
       inkscape:connector-curvature="0" /><path
       style="fill:#515151;fill-rule:nonzero;stroke:none;stroke-width:1.2166667;stroke-miterlimit:4"
       d="m 30.248418,20.459827 -4.994714,0 5.946086,-9.038054 -0.951372,9.038054 z"
       id="path16229"
       inkscape:connector-curvature="0" /></g><path
     style="color:#000000;display:inline;overflow:visible;visibility:visible;fill:none;fill-opacity:1;fill-rule:nonzero;stroke:#ffffff;stroke-width:0.36228421;stroke-linecap:butt;stroke-linejoin:miter;stroke-miterlimit:4;stroke-dashoffset:0;stroke-opacity:1;marker:none;marker-start:none;marker-mid:none;marker-end:none"
     d="m 0.66010822,2.3760542 14.64706478,0 c 0.05448,0 0.09834,0.04386 0.09834,0.09834 l 0,8.5855388 c 0,0.342676 -2.573575,2.564013 -2.628055,2.564013 l -12.11734978,0 c -0.054481,0 -0.098341,-0.04386 -0.098341,-0.09834 l 0,-11.0512108 c 0,-0.05448 0.04386,-0.09834 0.098341,-0.09834 z"
     id="rect7675"
     sodipodi:nodetypes="ccccccccc"
     inkscape:connector-curvature="0" /><rect
     style="color:#000000;display:inline;overflow:visible;visibility:visible;opacity:0.84659095;fill:none;fill-opacity:1;fill-rule:nonzero;stroke:#4f4f4f;stroke-width:0.3622843;stroke-linecap:butt;stroke-linejoin:miter;stroke-miterlimit:4;stroke-dasharray:none;stroke-dashoffset:0;stroke-opacity:1;marker:none;marker-start:none;marker-mid:none;marker-end:none"
     id="rect8163"
     width="12.702593"
     height="9.0797501"
     x="1.6367427"
     y="3.460125" /><path
     style="color:#000000;display:inline;overflow:visible;visibility:visible;fill:url(#linearGradient8169);fill-opacity:1;fill-rule:evenodd;stroke:url(#linearGradient8177);stroke-width:0.36228439;stroke-linecap:butt;stroke-linejoin:miter;stroke-miterlimit:4;stroke-dasharray:none;stroke-dashoffset:0;stroke-opacity:1;marker:none;marker-start:none;marker-mid:none;marker-end:none"
     d="m 12.398996,9.7202177 c 0.735589,0.119517 3.473869,-1.641122 3.363596,-3.078635 -0.566345,0.87785 -1.723937,0.466165 -3.212476,0.523772 0,0 0.143236,2.373721 -0.15112,2.554863 z"
     id="path2210"
     sodipodi:nodetypes="cccc"
     inkscape:connector-curvature="0" /><path
     sodipodi:nodetypes="cccc"
     id="path2247"
     d="m 12.924467,8.8449492 c 0.496249,-0.24774 1.604285,-0.77763 2.07503,-1.459088 -0.57824,0.246373 -1.067945,0.0759 -2.065866,0.06898 0,0 0.05881,1.109349 -0.0092,1.390108 z"
     style="color:#000000;display:inline;overflow:visible;visibility:visible;opacity:0.36931817;fill:none;fill-opacity:1;fill-rule:evenodd;stroke:url(#linearGradient8166);stroke-width:0.36228424;stroke-linecap:butt;stroke-linejoin:miter;stroke-miterlimit:4;stroke-dasharray:none;stroke-dashoffset:0;stroke-opacity:1;marker:none;marker-start:none;marker-mid:none;marker-end:none"
     inkscape:connector-curvature="0" /><path
     style="color:#000000;display:inline;overflow:visible;visibility:visible;opacity:0.30113639;fill:url(#radialGradient8161);fill-opacity:1;fill-rule:nonzero;stroke:none;stroke-width:1;stroke-linecap:butt;stroke-linejoin:miter;stroke-miterlimit:4;stroke-dasharray:none;stroke-dashoffset:0;stroke-opacity:1;marker:none;marker-start:none;marker-mid:none;marker-end:none"
     d="m 0.75367472,3.9961801 0,7.9928969 C 8.8420625,12.310916 9.7463441,7.256738 15.222404,7.256738 l 0,-3.2605579 -14.46872928,0 z"
     id="rect8150"
     sodipodi:nodetypes="ccccc"
     inkscape:connector-curvature="0" /></svg>