<?xml version="1.0" encoding="UTF-8" standalone="no"?>
<!-- Created with Inkscape (http://www.inkscape.org/) -->

<svg
   xmlns:dc="http://purl.org/dc/elements/1.1/"
   xmlns:cc="http://creativecommons.org/ns#"
   xmlns:rdf="http://www.w3.org/1999/02/22-rdf-syntax-ns#"
   xmlns:svg="http://www.w3.org/2000/svg"
   xmlns="http://www.w3.org/2000/svg"
   xmlns:xlink="http://www.w3.org/1999/xlink"
   xmlns:inkscape="http://www.inkscape.org/namespaces/inkscape"
   version="1.1"
   width="16"
   height="16"
   id="svg3862">
  <defs
     id="defs3864">
    <linearGradient
       x1="23.99999"
       y1="5.5641499"
       x2="23.99999"
       y2="43"
       id="linearGradient3988"
       xlink:href="#linearGradient3977"
       gradientUnits="userSpaceOnUse"
       gradientTransform="matrix(0.24324324,0,0,0.35135133,2.1621639,-0.43242759)" />
    <linearGradient
       id="linearGradient3977">
      <stop
         id="stop3979"
         style="stop-color:#ffffff;stop-opacity:1"
         offset="0" />
      <stop
         id="stop3981"
         style="stop-color:#ffffff;stop-opacity:0.23529412"
         offset="0.03626217" />
      <stop
         id="stop3983"
         style="stop-color:#ffffff;stop-opacity:0.15686275"
         offset="0.95056331" />
      <stop
         id="stop3985"
         style="stop-color:#ffffff;stop-opacity:0.39215687"
         offset="1" />
    </linearGradient>
    <linearGradient
       id="linearGradient2867-449-88-871-390-598-476-591-434-148-57-177-8-3">
      <stop
         id="stop3750-1-0"
         style="stop-color:#ffcd7d;stop-opacity:1"
         offset="0" />
      <stop
         id="stop3752-3-7"
         style="stop-color:#fc8f36;stop-opacity:1"
         offset="0.26238" />
      <stop
         id="stop3754-1-8"
         style="stop-color:#e23a0e;stop-opacity:1"
         offset="0.704952" />
      <stop
         id="stop3756-1-6"
         style="stop-color:#ac441f;stop-opacity:1"
         offset="1" />
    </linearGradient>
    <linearGradient
       id="linearGradient4039">
      <stop
         id="stop4041"
         style="stop-color:#ba3d12;stop-opacity:1"
         offset="0" />
      <stop
         id="stop4043"
         style="stop-color:#db6737;stop-opacity:1"
         offset="1" />
    </linearGradient>
    <radialGradient
       cx="7.8060555"
       cy="9.9571075"
       r="12.671875"
       fx="7.2758255"
       fy="9.9571075"
       id="radialGradient3858"
       xlink:href="#linearGradient2867-449-88-871-390-598-476-591-434-148-57-177-8-3"
       gradientUnits="userSpaceOnUse"
       gradientTransform="matrix(-1.6167311e-7,6.6018651,-8.0922115,-1.9817022e-7,197.43864,-60.072946)" />
    <linearGradient
       x1="25"
       y1="44.2915"
       x2="25"
       y2="0.57054341"
       id="linearGradient3860"
       xlink:href="#linearGradient4039"
       gradientUnits="userSpaceOnUse"
       gradientTransform="translate(92.874353,-4.6076e-4)" />
  </defs>
  <metadata
     id="metadata3867">
    <rdf:RDF>
      <cc:Work
         rdf:about="">
        <dc:format>image/svg+xml</dc:format>
        <dc:type
           rdf:resource="http://purl.org/dc/dcmitype/StillImage" />
        <dc:title />
      </cc:Work>
    </rdf:RDF>
  </metadata>
  <g
     id="layer1">
    <g
       transform="matrix(0.31429542,0,0,0.3408691,-28.733073,0.33044526)"
       id="layer1-3">
      <path
         d="m 99.374314,0.49719907 c 8.020296,0 35.000036,0.002801 35.000036,0.002801 l 4e-5,44.00280293 c 0,0 -23.33338,0 -35.000076,0 0,-14.668535 0,-29.33707 0,-44.005604 z"
         inkscape:connector-curvature="0"
         id="path4160-62"
         style="color:#000000;fill:url(#radialGradient3858);fill-opacity:1;fill-rule:nonzero;stroke:url(#linearGradient3860);stroke-width:3.0551827;stroke-linecap:butt;stroke-linejoin:round;stroke-miterlimit:4;stroke-opacity:1;stroke-dasharray:none;stroke-dashoffset:0;marker:none;visibility:visible;display:inline;overflow:visible;enable-background:accumulate" />
    </g>
    <path
       d="m 12.5,14.5 -8.9999998,0 0,-12.9999996 8.9999998,0 z"
       inkscape:connector-curvature="0"
       id="rect6741-1"
       style="opacity:0.5;fill:none;stroke:url(#linearGradient3988);stroke-width:1;stroke-linecap:round;stroke-linejoin:miter;stroke-miterlimit:4;stroke-opacity:1;stroke-dasharray:none;stroke-dashoffset:0" />
    <path
       d="m 4.0506297,13.121602 c 0,-0.245569 0.084815,-0.451731 0.2544263,-0.618487 0.1696226,-0.169774 0.3771033,-0.254665 0.6224421,-0.254671 0.2392791,6e-6 0.4422169,0.0849 0.6088069,0.254671 0.1696166,0.166756 0.2544252,0.372918 0.2544252,0.618487 0,0.23952 -0.084809,0.444166 -0.2544252,0.613942 -0.16659,0.166755 -0.3695278,0.250128 -0.6088069,0.250123 -0.2453388,5e-6 -0.4528195,-0.08337 -0.6224421,-0.250123 C 4.1354442,13.5688 4.0506297,13.364154 4.0506297,13.121602 m -0.050629,-3.9432047 0,1.4525647 c 1.856146,0 3.3637366,1.509967 3.3637366,3.369038 l 1.4578701,0 c 0,-2.662996 -2.162804,-4.8216027 -4.8216067,-4.8216027 z m 0.00251,-3.1783969 0,1.6056425 c 3.524219,0 6.3857103,2.8642341 6.3857103,6.3918391 l 1.611777,0 c 7e-6,-4.4158495 -3.5858662,-7.9974816 -7.9974809,-7.9974816 z"
       inkscape:connector-curvature="0"
       id="path4311"
       style="font-size:13.58991337px;font-style:normal;font-variant:normal;font-weight:bold;font-stretch:normal;text-align:start;line-height:125%;writing-mode:lr-tb;text-anchor:start;fill:#ffffff;fill-opacity:1;stroke:none;font-family:Bitstream Vera Serif" />
  </g>
</svg>
