<?xml version="1.0" encoding="UTF-8" standalone="no"?>
<!-- Created with Inkscape (http://www.inkscape.org/) -->

<svg
   xmlns:dc="http://purl.org/dc/elements/1.1/"
   xmlns:cc="http://creativecommons.org/ns#"
   xmlns:rdf="http://www.w3.org/1999/02/22-rdf-syntax-ns#"
   xmlns:svg="http://www.w3.org/2000/svg"
   xmlns="http://www.w3.org/2000/svg"
   xmlns:xlink="http://www.w3.org/1999/xlink"
   xmlns:sodipodi="http://sodipodi.sourceforge.net/DTD/sodipodi-0.dtd"
   xmlns:inkscape="http://www.inkscape.org/namespaces/inkscape"
   version="1.1"
   width="16"
   height="16"
   id="svg3147"
   inkscape:version="0.48.3.1 r9886"
   sodipodi:docname="template_source_2.svg">
  <sodipodi:namedview
     pagecolor="#ffffff"
     bordercolor="#666666"
     borderopacity="1"
     objecttolerance="10"
     gridtolerance="10"
     guidetolerance="10"
     inkscape:pageopacity="0"
     inkscape:pageshadow="2"
     inkscape:window-width="1035"
     inkscape:window-height="611"
     id="namedview89863"
     showgrid="false"
     inkscape:zoom="41.7193"
     inkscape:cx="10.271948"
     inkscape:cy="9.3423044"
     inkscape:window-x="458"
     inkscape:window-y="434"
     inkscape:window-maximized="0"
     inkscape:current-layer="svg3147" />
  <defs
     id="defs3149">
    <linearGradient
       x1="22.004084"
       y1="47.813133"
       x2="22.004084"
       y2="3.3638515"
       id="linearGradient3103"
       xlink:href="#linearGradient3104-5"
       gradientUnits="userSpaceOnUse"
       gradientTransform="matrix(0.32160807,0,0,0.3333374,-0.1751469,-0.34907707)" />
    <linearGradient
       id="linearGradient3104-5">
      <stop
         id="stop3106-2"
         style="stop-color:#aaaaaa;stop-opacity:1"
         offset="0" />
      <stop
         id="stop3108-5"
         style="stop-color:#c8c8c8;stop-opacity:1"
         offset="1" />
    </linearGradient>
    <linearGradient
       x1="23.99999"
       y1="5.5641499"
       x2="23.99999"
       y2="43"
       id="linearGradient3988"
       xlink:href="#linearGradient3977"
       gradientUnits="userSpaceOnUse"
       gradientTransform="matrix(0.24324324,0,0,0.35135133,2.1621636,-0.43242804)" />
    <linearGradient
       id="linearGradient3977">
      <stop
         id="stop3979"
         style="stop-color:#ffffff;stop-opacity:0.68067229;"
         offset="0" />
      <stop
         id="stop3981"
         style="stop-color:#ffffff;stop-opacity:0.23529412"
         offset="0.03626217" />
      <stop
         id="stop3983"
         style="stop-color:#ffffff;stop-opacity:0.15686275"
         offset="0.95056331" />
      <stop
         id="stop3985"
         style="stop-color:#ffffff;stop-opacity:0.39215687"
         offset="1" />
    </linearGradient>
    <linearGradient
       id="linearGradient3600">
      <stop
         id="stop3602"
         style="stop-color:#f4f4f4;stop-opacity:1"
         offset="0" />
      <stop
         id="stop3604"
         style="stop-color:#dbdbdb;stop-opacity:1"
         offset="1" />
    </linearGradient>
    <linearGradient
       id="linearGradient3104">
      <stop
         id="stop3106"
         style="stop-color:#a0a0a0;stop-opacity:1"
         offset="0" />
      <stop
         id="stop3108"
         style="stop-color:#bebebe;stop-opacity:1"
         offset="1" />
    </linearGradient>
    <linearGradient
       x1="25.132275"
       y1="0.98520643"
       x2="25.132275"
       y2="47.013336"
       id="linearGradient3143"
       xlink:href="#linearGradient3600"
       gradientUnits="userSpaceOnUse"
       gradientTransform="matrix(0.31428714,0,0,0.3259265,0.457108,-0.32223804)" />
    <linearGradient
       x1="-51.786404"
       y1="50.786446"
       x2="-51.786404"
       y2="2.9062471"
       id="linearGradient3145"
       xlink:href="#linearGradient3104"
       gradientUnits="userSpaceOnUse"
       gradientTransform="matrix(0.25378586,0,0,0.30501865,19.128979,-0.68547704)" />
    <linearGradient
       x1="302.85715"
       y1="366.64789"
       x2="302.85715"
       y2="609.50507"
       id="linearGradient4245"
       xlink:href="#linearGradient5048"
       gradientUnits="userSpaceOnUse"
       gradientTransform="matrix(0.06732488,0,0,0.01470022,-0.3411391,37.040146)" />
    <linearGradient
       id="linearGradient5048">
      <stop
         id="stop5050"
         style="stop-color:#000000;stop-opacity:0"
         offset="0" />
      <stop
         id="stop5056"
         style="stop-color:#000000;stop-opacity:1"
         offset="0.5" />
      <stop
         id="stop5052"
         style="stop-color:#000000;stop-opacity:0"
         offset="1" />
    </linearGradient>
    <radialGradient
       cx="605.71429"
       cy="486.64789"
       r="117.14286"
       fx="605.71429"
       fy="486.64789"
       id="radialGradient3330"
       xlink:href="#linearGradient5060"
       gradientUnits="userSpaceOnUse"
       gradientTransform="matrix(-0.02303994,0,0,0.01470022,21.62311,37.040176)" />
    <linearGradient
       id="linearGradient5060">
      <stop
         id="stop5062"
         style="stop-color:#000000;stop-opacity:1"
         offset="0" />
      <stop
         id="stop5064"
         style="stop-color:#000000;stop-opacity:0"
         offset="1" />
    </linearGradient>
    <radialGradient
       cx="605.71429"
       cy="486.64789"
       r="117.14286"
       fx="605.71429"
       fy="486.64789"
       id="radialGradient3327"
       xlink:href="#linearGradient5060"
       gradientUnits="userSpaceOnUse"
       gradientTransform="matrix(0.02303995,0,0,0.01470022,26.360882,37.040176)" />
    <linearGradient
       id="linearGradient3045">
      <stop
         id="stop3047"
         style="stop-color:#000000;stop-opacity:1"
         offset="0" />
      <stop
         id="stop3049"
         style="stop-color:#000000;stop-opacity:0"
         offset="1" />
    </linearGradient>
    <radialGradient
       cx="15.951264"
       cy="8.6004324"
       r="18.000002"
       fx="15.951264"
       fy="8.6004324"
       id="radialGradient3350-4"
       xlink:href="#linearGradient2867-449-88-871-390-598-476-591-434-148-57-177-7"
       gradientUnits="userSpaceOnUse"
       gradientTransform="matrix(-1.8296896e-8,2.5204536,-2.2447219,-1.6295259e-8,43.307494,-27.461211)" />
    <linearGradient
       id="linearGradient2867-449-88-871-390-598-476-591-434-148-57-177-7">
      <stop
         id="stop3750-6"
         style="stop-color:#90dbec;stop-opacity:1"
         offset="0" />
      <stop
         id="stop3752-3"
         style="stop-color:#55c1ec;stop-opacity:1"
         offset="0.26238" />
      <stop
         id="stop3754-1"
         style="stop-color:#3689e6;stop-opacity:1"
         offset="0.704952" />
      <stop
         id="stop3756-7"
         style="stop-color:#2b63a0;stop-opacity:1"
         offset="1" />
    </linearGradient>
    <linearGradient
       x1="-51.786404"
       y1="53.623615"
       x2="-51.786404"
       y2="2.9062471"
       id="linearGradient3352-5"
       xlink:href="#linearGradient3707-319-631-407-324-9"
       gradientUnits="userSpaceOnUse"
       gradientTransform="matrix(0.8074968,0,0,0.8948322,59.410231,-2.9833171)" />
    <linearGradient
       id="linearGradient3707-319-631-407-324-9">
      <stop
         id="stop3760-6"
         style="stop-color:#185f9a;stop-opacity:1"
         offset="0" />
      <stop
         id="stop3762-2"
         style="stop-color:#599ec9;stop-opacity:1"
         offset="1" />
    </linearGradient>
    <linearGradient
       x1="23.99999"
       y1="5.5641499"
       x2="23.99999"
       y2="43"
       id="linearGradient3988-8"
       xlink:href="#linearGradient3977-8"
       gradientUnits="userSpaceOnUse"
       gradientTransform="matrix(0.89189189,0,0,1.1351351,2.5945999,-4.7432315)" />
    <linearGradient
       id="linearGradient3977-8">
      <stop
         id="stop3979-9"
         style="stop-color:#ffffff;stop-opacity:1"
         offset="0" />
      <stop
         id="stop3981-8"
         style="stop-color:#ffffff;stop-opacity:0.23529412"
         offset="0.03626217" />
      <stop
         id="stop3983-4"
         style="stop-color:#ffffff;stop-opacity:0.15686275"
         offset="0.95056331" />
      <stop
         id="stop3985-7"
         style="stop-color:#ffffff;stop-opacity:0.39215687"
         offset="1" />
    </linearGradient>
    <radialGradient
       cx="21.171581"
       cy="25.536045"
       r="16"
       fx="21.171581"
       fy="25.536045"
       id="radialGradient3338"
       xlink:href="#linearGradient3827"
       gradientUnits="userSpaceOnUse"
       gradientTransform="matrix(1.1563548,1.7750479e-8,-2.3661307e-8,1.5414157,-2.9825321,-12.701774)" />
    <linearGradient
       id="linearGradient3827">
      <stop
         id="stop3829"
         style="stop-color:#ffffff;stop-opacity:1"
         offset="0" />
      <stop
         id="stop3835"
         style="stop-color:#ffffff;stop-opacity:1"
         offset="0.82282937" />
      <stop
         id="stop3831"
         style="stop-color:#ffffff;stop-opacity:0"
         offset="1" />
    </linearGradient>
    <linearGradient
       inkscape:collect="always"
       xlink:href="#linearGradient3977"
       id="linearGradient3943"
       gradientUnits="userSpaceOnUse"
       gradientTransform="matrix(0.24324324,0,0,0.35135133,2.1621636,-0.43242804)"
       x1="23.99999"
       y1="5.5641499"
       x2="23.99999"
       y2="43" />
    <linearGradient
       inkscape:collect="always"
       xlink:href="#linearGradient2867-449-88-871-390-598-476-591-434-148-57-177-7"
       id="linearGradient3946"
       gradientUnits="userSpaceOnUse"
       gradientTransform="matrix(0.31428714,0,0,0.3259265,0.457108,-0.32223804)"
       x1="25.132275"
       y1="0.98520643"
       x2="25.132275"
       y2="47.013336" />
    <linearGradient
       inkscape:collect="always"
       xlink:href="#linearGradient3707-319-631-407-324-9"
       id="linearGradient3948"
       gradientUnits="userSpaceOnUse"
       gradientTransform="matrix(0.25378586,0,0,0.30501865,19.128979,-0.68547704)"
       x1="-51.786404"
       y1="50.786446"
       x2="-51.786404"
       y2="2.9062471" />
    <radialGradient
       inkscape:collect="always"
       xlink:href="#linearGradient3827"
       id="radialGradient3971"
       gradientUnits="userSpaceOnUse"
       gradientTransform="matrix(1.1563548,1.7750479e-8,-2.3661307e-8,1.5414157,18.076288,-24.57549)"
       cx="21.171581"
       cy="25.536045"
       fx="21.171581"
       fy="25.536045"
       r="16" />
    <linearGradient
       inkscape:collect="always"
       xlink:href="#linearGradient3977-8"
       id="linearGradient3974"
       gradientUnits="userSpaceOnUse"
       gradientTransform="matrix(0.89189189,0,0,1.1351351,23.65342,-16.616948)"
       x1="23.99999"
       y1="5.5641499"
       x2="23.99999"
       y2="43" />
    <radialGradient
       inkscape:collect="always"
       xlink:href="#linearGradient2867-449-88-871-390-598-476-591-434-148-57-177-7"
       id="radialGradient3977"
       gradientUnits="userSpaceOnUse"
       gradientTransform="matrix(-1.8296896e-8,2.5204536,-2.2447219,-1.6295259e-8,64.366314,-39.334927)"
       cx="15.951264"
       cy="8.6004324"
       fx="15.951264"
       fy="8.6004324"
       r="18.000002" />
    <linearGradient
       inkscape:collect="always"
       xlink:href="#linearGradient3707-319-631-407-324-9"
       id="linearGradient3979"
       gradientUnits="userSpaceOnUse"
       gradientTransform="matrix(0.8074968,0,0,0.8948322,80.469051,-14.857033)"
       x1="-51.786404"
       y1="53.623615"
       x2="-51.786404"
       y2="2.9062471" />
    <radialGradient
       inkscape:collect="always"
       xlink:href="#linearGradient5060"
       id="radialGradient3982"
       gradientUnits="userSpaceOnUse"
       gradientTransform="matrix(0.02303995,0,0,0.01470022,47.419702,25.16646)"
       cx="605.71429"
       cy="486.64789"
       fx="605.71429"
       fy="486.64789"
       r="117.14286" />
    <radialGradient
       inkscape:collect="always"
       xlink:href="#linearGradient5060"
       id="radialGradient3985"
       gradientUnits="userSpaceOnUse"
       gradientTransform="matrix(-0.02303994,0,0,0.01470022,42.68193,25.16646)"
       cx="605.71429"
       cy="486.64789"
       fx="605.71429"
       fy="486.64789"
       r="117.14286" />
    <linearGradient
       inkscape:collect="always"
       xlink:href="#linearGradient5048"
       id="linearGradient3989"
       gradientUnits="userSpaceOnUse"
       gradientTransform="matrix(0.06732488,0,0,0.01470022,20.717681,25.16643)"
       x1="302.85715"
       y1="366.64789"
       x2="302.85715"
       y2="609.50507" />
  </defs>
  <metadata
     id="metadata3152">
    <rdf:RDF>
      <cc:Work
         rdf:about="">
        <dc:format>image/svg+xml</dc:format>
        <dc:type
           rdf:resource="http://purl.org/dc/dcmitype/StillImage" />
        <dc:title></dc:title>
      </cc:Work>
    </rdf:RDF>
  </metadata>
  <path
     inkscape:connector-curvature="0"
     style="fill:url(#linearGradient3946);fill-opacity:1.0;stroke:url(#linearGradient3948);stroke-width:0.99992192000000002;stroke-linecap:butt;stroke-linejoin:round;stroke-miterlimit:4;stroke-opacity:1;stroke-dasharray:none;stroke-dashoffset:0;display:inline"
     id="path4160"
     d="m 2.4999621,0.49997396 c 2.5206756,0 11.0000629,9.54e-4 11.0000629,9.54e-4 l 1.3e-5,14.99909804 c 0,0 -7.3333841,0 -11.0000759,0 0,-5.000017 0,-10.000035 0,-15.00005204 z" />
  <path
     style="font-size:18.4205246px;font-style:normal;font-weight:normal;opacity:0.7;fill:#ffffff;fill-opacity:1;stroke:none;font-family:Bitstream Vera Sans"
     id="text34519"
     d="M 5.1179915,5.7479185 C 4.625522,6.0760776 4.6837325,6.9380131 5.220867,7.1931401 6.4450963,7.6382991 7.2391163,7.0064521 7.5285524,5.8340561 7.5365286,5.6612806 7.6014897,5.4073409 7.3449545,5.4866006 6.5765309,5.4494719 5.8443057,5.5024028 5.1179915,5.7479185 z M 8.4114656,5.1632218 c 5e-7,0.9063127 5e-7,1.8126253 5e-7,2.7189383 -0.2919801,0 -0.5839607,0 -0.8759408,0 -0.017228,-0.200748 0.034837,-0.627807 -0.026711,-0.683826 -0.3429389,0.500139 -0.9410945,0.771305 -1.5366912,0.79737 C 4.3751151,8.0727531 3.6757227,7.1066211 4.1422151,5.6407883 5.0377465,4.7117014 6.3199396,4.8736075 7.5125355,4.8732012 7.4612539,3.3225222 5.5013272,3.6749099 4.4574467,3.9821338 4.1806848,4.1676141 4.3396146,3.7148888 4.2983508,3.5556453 4.2025653,3.2060074 4.6704312,3.2616107 4.8911738,3.1591752 5.6951739,2.9651039 6.5743011,2.908635 7.3565975,3.2196334 8.1758771,3.6209482 8.3473816,4.340976 8.4114641,5.1632218 z"
     inkscape:connector-curvature="0" />
  <path
     inkscape:connector-curvature="0"
     style="fill:none;stroke:url(#linearGradient3943);stroke-width:1;stroke-linecap:round;stroke-linejoin:miter;stroke-miterlimit:4;stroke-opacity:1;stroke-dasharray:none;stroke-dashoffset:0"
     id="rect6741-1"
     d="m 12.5,14.5 -9.0000001,0 0,-13 L 12.5,1.5 z" />
  <path
     inkscape:connector-curvature="0"
     style="opacity:0.7;fill:none;stroke:#ffffff;stroke-width:1px;stroke-linecap:butt;stroke-linejoin:miter;stroke-opacity:1"
     id="path3475"
     d="m 9.19598,3.499995 1.216081,0 z m 1.316584,0 0.371858,0 z m -1.9497494,0.994817 0.6331654,0 z m 0.7336684,0 0.994975,0.010376 z m 1.085427,0.010376 1.61809,0 z m -1.8190954,2.9896074 0.6331654,0 z m 0.7336684,0 0.994975,0.010376 z m 1.085427,0.010376 1.61809,0 z M 8.586176,8.5 l 0.4992512,0 z m 0.609804,0 1.206031,0 z m 1.306533,0 0.381909,0 z m 0.482412,0 0.904523,0 z m -6.9849249,1 1.1758797,0 z m 1.3065331,0 0.5628138,0 z m 0.6633158,0 0.2814074,0 z m 0.3919602,0 0.5125629,0 z m 0.6231157,0 0.5226136,0 z m 0.6231156,0 0.8341715,0 z m 0.9447243,0 1.0854264,0 z m 1.1859294,0 0.7236178,0 z m 0.8241208,0 0.180904,0 z m -6.5628149,1.994804 0.9949753,0 z m 1.0954773,0 1.6281406,0 z m 1.7286437,0 0.7939702,0 z m 0.8944722,0 0.7437182,0 z m 0.8442213,0 0.6331654,0 z m 0.7336684,0 0.994975,0.01038 z m 1.085427,0.01038 1.61809,0 z M 4.0000001,12.5 l 1.2462313,0 z m 1.3567841,0 0.3919602,0 z m 0.4924622,0 0.8944722,0 z m 0.9949753,0 1.3165828,0 z m 1.4271356,0 0.8944723,0 z m 0.9849245,0 0.1909552,0 z m 0.2914572,0 1.135678,0 z m 1.256282,0 0.592964,0 z m -6.8040209,1 1.2462313,0 z m 1.3567841,0 0.5628138,0 z m 0.6633168,0 0.8844215,0 z m 0.9849245,0 0.954774,0 z m 1.0653268,0 0.3819094,0 z m 0.4824125,0 0.2110548,0 z m 0.3216076,0 0.5929652,0 z"
     sodipodi:nodetypes="ccccccccccccccccccccccccccccccccccccccccccccccccccccccccccccccccccccccccccccccccccccccccccccccccccccccccccccccccccccccccccccccccc" />
  <rect
     style="opacity:0.3;fill:url(#linearGradient3989);fill-opacity:1;fill-rule:nonzero;stroke:none;stroke-width:1;marker:none;visibility:visible;display:inline;overflow:visible"
     id="rect2879"
     y="30.556231"
     x="28.796667"
     height="3.5700529"
     width="32.508301" />
  <path
     style="opacity:0.3;fill:url(#radialGradient3985);fill-opacity:1;fill-rule:nonzero;stroke:none;stroke-width:1;marker:none;visibility:visible;display:inline;overflow:visible"
     id="path2881"
     d="m 28.796668,30.556386 c 0,0 0,3.569856 0,3.569856 -1.186501,0.0067 -2.86838,-0.799823 -2.86838,-1.785158 0,-0.985333 1.324045,-1.784697 2.868379,-1.784698 z"
     inkscape:connector-curvature="0" />
  <path
     style="opacity:0.3;fill:url(#radialGradient3982);fill-opacity:1;fill-rule:nonzero;stroke:none;stroke-width:1;marker:none;visibility:visible;display:inline;overflow:visible"
     id="path2883"
     d="m 61.304968,30.556386 c 0,0 0,3.569856 0,3.569856 1.1865,0.0067 2.86838,-0.799823 2.86838,-1.785158 0,-0.985333 -1.324045,-1.784697 -2.86838,-1.784698 z"
     inkscape:connector-curvature="0" />
  <path
     style="color:#000000;fill:url(#radialGradient3977);fill-opacity:1;fill-rule:nonzero;stroke:url(#linearGradient3979);stroke-width:0.99992186;stroke-linecap:butt;stroke-linejoin:round;stroke-miterlimit:4;stroke-opacity:1;stroke-dasharray:none;stroke-dashoffset:0;marker:none;visibility:visible;display:inline;overflow:visible;enable-background:accumulate"
     id="path4160-8"
     d="m 27.558781,-11.373755 c 8.020295,0 35.000039,0.0028 35.000039,0.0028 l 4.2e-5,43.997277 c 0,0 -23.333387,0 -35.000081,0 0,-14.666693 0,-29.333386 0,-44.000078 z"
     inkscape:connector-curvature="0" />
  <path
     style="opacity:0.5;fill:none;stroke:url(#linearGradient3974);stroke-width:1;stroke-linecap:round;stroke-linejoin:round;stroke-miterlimit:4;stroke-opacity:1;stroke-dasharray:none;stroke-dashoffset:0"
     id="rect6741-1-8"
     d="m 61.55882,31.626284 -33,0 0,-42 33,0 z"
     inkscape:connector-curvature="0" />
  <path
     style="opacity:0.2;fill:none;stroke:url(#radialGradient3971);stroke-width:0.96299994;stroke-linecap:square;stroke-linejoin:round;stroke-miterlimit:4;stroke-opacity:1;stroke-dasharray:none"
     id="path3318"
     d="m 54.577319,-5.3579806 -25.036999,-0.037 m 3.036999,-3.9999994 -0.037,41.036998 m 25,2e-6 0.037,-36.6049992 m -20,-4.4320008 -0.037,41.036998 m 5.037,-41.036998 -0.037,41.036998 m 5.037,-41.036998 -0.037,41.036998 m 5.037,-41.036998 -0.037,41.036998 M 60.57732,-0.35798 29.540321,-0.39498 m 31.036999,5.037 -31.036999,-0.037 m 31.036999,5.037 -31.036999,-0.037 m 31.036999,5.037 -31.036999,-0.037 m 31.036999,5.037 -31.036999,-0.037 m 31.036999,5.037 -31.036999,-0.037 m 31.036999,5.037 -31.036999,-0.037"
     inkscape:connector-curvature="0" />
  <path
     style="opacity:0.5;fill:none;stroke:#ffffff;stroke-width:0.96299988;stroke-linecap:square;stroke-linejoin:round;stroke-miterlimit:4;stroke-opacity:1;stroke-dasharray:none"
     id="path3962"
     d="m 41.540319,29.605024 17.037,0.037"
     inkscape:connector-curvature="0" />
  <path
     style="opacity:0.5;fill:none;stroke:#ffffff;stroke-width:0.96299988;stroke-linecap:square;stroke-linejoin:round;stroke-miterlimit:4;stroke-opacity:1;stroke-dasharray:none"
     id="path3960"
     d="m 57.540319,31.64202 0.037,-15.036999"
     inkscape:connector-curvature="0" />
  <path
     style="opacity:0.5;fill:none;stroke:#ffffff;stroke-width:0.96299994;stroke-linecap:square;stroke-linejoin:round;stroke-miterlimit:4;stroke-opacity:1;stroke-dasharray:none"
     id="path3554"
     d="m 44.577319,-5.3579785 -13.037,-0.037 m 1.037,-1.9999994 -0.037,19.0369989"
     inkscape:connector-curvature="0" />
  <path
     style="opacity:0.7;fill:#ffffff;fill-opacity:1;stroke:none;display:inline"
     id="path3406"
     d="m 34.05882,10.123521 2.345838,0 0,1 -2.345838,0 0,-1 z m 2.665379,0 2.213403,0 0,1 -2.213403,0 0,-1 z m 2.532944,0 1.948514,0 0,1 -1.948514,0 0,-1 z m 2.268056,0 0.855871,0 0,1 -0.855871,0 0,-1 z m 1.175422,0 1.915398,0 0,1 -1.915398,0 0,-1 z m 2.234949,0 4.961553,0 0,1 -4.961553,0 0,-1 z m 5.281094,0 3.769581,0 0,1 -3.769581,0 0,-1 z m 4.089133,0 1.153856,0 0,1 -1.153856,0 0,-1 z m -20.246977,6 3.691817,0 0,1 -3.691817,0 0,-1 z m 3.965761,0 1.776154,0 0,1 -1.776154,0 0,-1 z m 2.15092,0 0.835125,0 0,1 -0.835125,0 0,-1 z m 1.041852,0 1.608114,0 0,1 -1.608114,0 0,-1 z m 1.882048,0 1.608115,0 0,1 -1.608115,0 0,-1 z m 2.117317,0 2.582748,0 0,1 -2.582748,0 0,-1 z m 2.890296,0 3.389342,0 0,1 -3.389342,0 0,-1 z m 3.864929,0 2.280283,0 0,1 -2.280283,0 0,-1 z m 2.554218,0 0.532659,0 0,1 -0.532659,0 0,-1 z m -20.467341,-4 3.928045,0 0,1 -3.928045,0 0,-1 z m 4.235965,0 4.208949,0 0,1 -4.208949,0 0,-1 z m 4.516869,0 1.680758,0 0,1 -1.680758,0 0,-1 z m 1.988678,0 3.959254,0 0,1 -3.959254,0 0,-1 z m 7.285852,0 1.056505,0 0,1 -1.056505,0 0,-1 z m -3.018678,0 2.710758,0 0,1 -2.710758,0 0,-1 z m 4.383104,0 1,0 0,1 -1,0 0,-1 z m -19.39179,2 4.28514,0 0,1 -4.28514,0 0,-1 z m 4.621053,0 4.59158,0 0,1 -4.59158,0 0,-1 z m 4.927493,0 1.833555,0 0,1 -1.833555,0 0,-1 z m 2.169468,0 4.319185,0 0,1 -4.319185,0 0,-1 z m 7.948201,0 1.152552,0 0,1 -1.152552,0 0,-1 z m -3.293103,0 2.95719,0 0,1 -2.95719,0 0,-1 z m -16.373112,7.999999 3.691817,0 0,1 -3.691817,0 0,-1 z m 3.965761,0 1.776154,0 0,1 -1.776154,0 0,-1 z m 2.15092,0 0.835125,0 0,1 -0.835125,0 0,-1 z m 1.041852,0 1.608114,0 0,1 -1.608114,0 0,-1 z m 1.882048,0 1.608115,0 0,1 -1.608115,0 0,-1 z m 2.117317,0 2.582748,0 0,1 -2.582748,0 0,-1 z m 2.890296,0 3.389342,0 0,1 -3.389342,0 0,-1 z m 3.864929,0 2.280283,0 0,1 -2.280283,0 0,-1 z m 2.554218,0 0.532659,0 0,1 -0.532659,0 0,-1 z m -20.467341,-2 3.061572,0 0,1 -3.061572,0 0,-1 z m 3.38681,0 5.083544,0 0,1 -5.083544,0 0,-1 z m 5.408782,0 2.454976,0 0,1 -2.454976,0 0,-1 z m 5.39193,0 1.949485,0 0,1 -1.949485,0 0,-1 z m 2.274723,0 3.128973,0 0,1 -3.128973,0 0,-1 z m -4.886439,0 2.286488,0 0,1 -2.286488,0 0,-1 z m -11.575806,3.99828 3.868703,0 0,1 -3.868703,0 0,-1 z m 4.188155,0 1.218185,0 0,1 -1.218185,0 0,-1 0,0 z m 1.537637,0 2.781317,0 0,1 -2.781317,0 0,-1 z m 3.100769,0 1.89781,0 0,1 -1.89781,0 0,-1 z m 2.217262,0 1.8978,0 0,1 -1.8978,0 0,-1 z m 2.217263,0 2.747329,0 0,1 -2.747329,0 0,-1 z m 3.066771,0 0.572556,0 0,1 -0.572556,0 0,-1 z m 0.892008,0 3.562873,0 0,1 -3.562873,0 0,-1 z m -17.219865,2 3.796419,0 0,1 -3.796419,0 0,-1 z m 6.256706,0 2.438723,0 0,1 -2.438723,0 0,-1 z m 2.788936,0 2.235065,0 0,1 -2.235065,0 0,-1 z m 5.990819,0 1.963539,0 0,1 -1.963539,0 0,-1 0,0 z m -1.125747,0 0.775544,0 0,1 -0.775544,0 0,-1 z m -2.279794,0 1.929581,0 0,1 -1.929581,0 0,-1 z m -7.484298,0 1.759881,0 0,1 -1.759881,0 0,-1 0,0 z"
     inkscape:connector-curvature="0" />
  <path
     style="opacity:0.7;fill:none;stroke:#ffffff;stroke-width:0.96299988;stroke-linecap:square;stroke-linejoin:round;stroke-miterlimit:4;stroke-opacity:1;stroke-dasharray:none"
     id="path3342"
     d="m 54.558819,6.62352 10e-4,0 m -1.501,0 10e-4,0 m -3.001,0 1.5,0 m -6,0 3,0 m 4,-2 2.000915,0 m -5.500915,0 1.9997,0 m -5.4997,0 2.000693,0 m 5.499307,-2 1,0 m -4,0 1.5,0 m -6,0 3,0 m 4,-2 10e-4,0 m -3.501,0 1.9997,0 m -5.4997,0 2.000693,0 m 4.999307,-2 2.000915,0 m -5.500915,0 1.9997,0 m -5.4997,0 2.000693,0"
     inkscape:connector-curvature="0" />
</svg>
