<?xml version="1.0" encoding="UTF-8" standalone="no"?>
<svg
   xmlns:dc="http://purl.org/dc/elements/1.1/"
   xmlns:cc="http://creativecommons.org/ns#"
   xmlns:rdf="http://www.w3.org/1999/02/22-rdf-syntax-ns#"
   xmlns:svg="http://www.w3.org/2000/svg"
   xmlns="http://www.w3.org/2000/svg"
   xmlns:xlink="http://www.w3.org/1999/xlink"
   xmlns:sodipodi="http://sodipodi.sourceforge.net/DTD/sodipodi-0.dtd"
   xmlns:inkscape="http://www.inkscape.org/namespaces/inkscape"
   version="1.1"
   id="svg2"
   height="90"
   width="495.06219"
   inkscape:version="0.91 r13725"
   sodipodi:docname="partkeepr-setup.svg">
  <sodipodi:namedview
     pagecolor="#ffffff"
     bordercolor="#666666"
     borderopacity="1"
     objecttolerance="10"
     gridtolerance="10"
     guidetolerance="10"
     inkscape:pageopacity="0"
     inkscape:pageshadow="2"
     inkscape:window-width="1916"
     inkscape:window-height="1041"
     id="namedview4200"
     showgrid="false"
     inkscape:zoom="1.0520833"
     inkscape:cx="378.9334"
     inkscape:cy="82.209736"
     inkscape:window-x="4240"
     inkscape:window-y="18"
     inkscape:window-maximized="0"
     inkscape:current-layer="svg2"
     fit-margin-top="0"
     fit-margin-left="0"
     fit-margin-right="0"
     fit-margin-bottom="0" />
  <defs
     id="defs4">
    <linearGradient
       id="linearGradient3935">
      <stop
         id="stop3937"
         offset="0"
         style="stop-color:#ffffff;stop-opacity:1;" />
      <stop
         id="stop3939"
         offset="1"
         style="stop-color:#000000;stop-opacity:1;" />
    </linearGradient>
    <linearGradient
       gradientTransform="translate(6.0630807,-15.157702)"
       gradientUnits="userSpaceOnUse"
       y2="386.38205"
       x2="671.87634"
       y1="386.38205"
       x1="156.828"
       id="linearGradient3941"
       xlink:href="#linearGradient3935" />
  </defs>
  <metadata
     id="metadata7">
    <rdf:RDF>
      <cc:Work
         rdf:about="">
        <dc:format>image/svg+xml</dc:format>
        <dc:type
           rdf:resource="http://purl.org/dc/dcmitype/StillImage" />
        <dc:title></dc:title>
      </cc:Work>
    </rdf:RDF>
  </metadata>
  <g
     transform="matrix(0.54738044,0,0,0.54738044,-14.391499,-150.19243)"
     id="layer1">
    <path
       transform="matrix(1.3078821,0,0,1.1066695,-257.70567,10.91202)"
       d="m 342.85714,312.36218 a 62.857143,74.285713 0 0 1 -62.79459,74.28568 62.857143,74.285713 0 0 1 -62.91957,-74.13783 62.857143,74.285713 0 0 1 62.66937,-74.43323 62.857143,74.285713 0 0 1 63.0443,73.9897"
       id="path2985"
       style="fill:#003849;fill-opacity:1;stroke:none"
       inkscape:connector-curvature="0" />
    <path
       id="path4101"
       d="m 82.487636,399.66936 4.733484,-23.24707 c 0.24034,-1.18047 1.129925,-5.54924 4.283838,-9.44374 16.210112,-16.5409 42.309022,-5.09643 47.973562,-32.23486 4.84684,-24.44446 -25.22206,-21.0673 -54.733749,-21.0673 l -0.818182,0"
       style="fill:none;stroke:#ffffff;stroke-width:17.70680618;stroke-linecap:round;stroke-linejoin:miter;stroke-miterlimit:0;stroke-dasharray:none;stroke-opacity:1"
       inkscape:connector-curvature="0" />
    <g
       transform="scale(1.0048563,0.99516717)"
       style="font-style:normal;font-variant:normal;font-weight:500;font-stretch:normal;font-size:151.59248352px;line-height:125%;font-family:Ubuntu;-inkscape-font-specification:'Ubuntu Medium';letter-spacing:0px;word-spacing:0px;fill:#003849;fill-opacity:1;stroke:none;stroke-width:1.54566264"
       id="text3945">
      <path
         d="m 253.25504,304.76215 q 22.89047,0 35.01787,8.33759 12.27899,8.33759 12.27899,26.07391 0,9.24714 -3.33504,15.91721 -3.18344,6.51847 -9.39873,10.76306 -6.21529,4.093 -15.15925,6.0637 -8.94396,1.97071 -20.46499,1.97071 l -9.55032,0 0,36.98856 -19.10065,0 0,-103.53766 q 6.67006,-1.51593 14.70447,-1.97071 8.18599,-0.60637 15.00765,-0.60637 z m 1.36433,16.52358 q -7.27643,0 -11.9758,0.45478 l 0,35.77583 9.24714,0 q 13.79492,0 21.22295,-3.78981 7.42803,-3.94141 7.42803,-14.70448 0,-5.15414 -1.9707,-8.64077 -1.97071,-3.48662 -5.45733,-5.45733 -3.48663,-1.9707 -8.33759,-2.72866 -4.69937,-0.90956 -10.1567,-0.90956 z"
         style="font-weight:500;-inkscape-font-specification:'Ubuntu Medium';fill:#003849;fill-opacity:1;stroke:none;stroke-width:1.54566264"
         id="path4203"
         inkscape:connector-curvature="0" />
      <path
         d="m 342.31089,397.99153 q 8.48917,0 12.88536,-0.90955 l 0,-20.3134 q -1.51593,-0.45477 -4.39619,-0.90955 -2.88025,-0.45478 -6.36688,-0.45478 -3.03185,0 -6.21529,0.45478 -3.03185,0.45478 -5.60892,1.66752 -2.42548,1.21274 -3.94141,3.48662 -1.51592,2.1223 -1.51592,5.45733 0,6.51848 4.09299,9.09555 4.093,2.42548 11.06626,2.42548 z m -1.51593,-68.36821 q 9.09555,0 15.31084,2.27389 6.21529,2.27389 9.85351,6.36688 3.78981,4.093 5.30574,10.00511 1.66752,5.76051 1.66752,12.73377 l 0,48.05481 q -4.24459,0.90956 -12.88536,2.1223 -8.48918,1.36433 -19.25225,1.36433 -7.12485,0 -13.03695,-1.36433 -5.91211,-1.36434 -10.1567,-4.39618 -4.093,-3.03185 -6.51848,-7.88281 -2.27388,-4.85096 -2.27388,-11.97581 0,-6.82166 2.57707,-11.52103 2.72866,-4.69937 7.27644,-7.57962 4.54777,-3.03185 10.45988,-4.24459 6.0637,-1.36434 12.58218,-1.36434 3.03184,0 6.36688,0.45478 3.33503,0.30319 7.12485,1.21274 l 0,-3.03185 q 0,-3.18344 -0.75797,-6.0637 -0.75796,-2.88025 -2.72866,-5.00255 -1.81911,-2.27389 -5.00255,-3.48663 -3.03185,-1.21274 -7.73122,-1.21274 -6.36688,0 -11.67262,0.90956 -5.30574,0.90955 -8.64077,2.12229 l -2.27389,-14.85606 q 3.48663,-1.21274 10.1567,-2.42548 6.67007,-1.21274 14.24969,-1.21274 z"
         style="font-weight:500;-inkscape-font-specification:'Ubuntu Medium';fill:#003849;fill-opacity:1;stroke:none;stroke-width:1.54566264"
         id="path4205"
         inkscape:connector-curvature="0" />
      <path
         d="m 440.42201,348.1176 q -2.27389,-0.75796 -6.36688,-1.51592 -3.94141,-0.90956 -9.24715,-0.90956 -3.03185,0 -6.51847,0.60637 -3.33504,0.60637 -4.69937,1.06115 l 0,63.51725 -18.34269,0 0,-75.49305 q 5.30574,-1.97071 13.18855,-3.63822 8.0344,-1.81911 17.73632,-1.81911 1.81911,0 4.24459,0.30318 2.42548,0.15159 4.85096,0.60637 2.42548,0.30319 4.69936,0.90956 2.27389,0.45477 3.63822,0.90955 l -3.18344,15.46243 z"
         style="font-weight:500;-inkscape-font-specification:'Ubuntu Medium';fill:#003849;fill-opacity:1;stroke:none;stroke-width:1.54566264"
         id="path4207"
         inkscape:connector-curvature="0" />
      <path
         d="m 455.33019,310.67426 18.34269,-3.03185 0,23.95161 28.1962,0 0,15.31084 -28.1962,0 0,32.2892 q 0,9.55033 3.03185,13.64333 3.03185,4.09299 10.30829,4.09299 5.00255,0 8.79236,-1.06114 3.94141,-1.06115 6.21529,-1.97071 l 3.03185,14.55288 q -3.18344,1.36433 -8.33758,2.72867 -5.15415,1.51592 -12.1274,1.51592 -8.48918,0 -14.24969,-2.27389 -5.60893,-2.27388 -8.94396,-6.51847 -3.33504,-4.39618 -4.69937,-10.45988 -1.36433,-6.2153 -1.36433,-14.0981 l 0,-68.6714 z"
         style="font-weight:500;-inkscape-font-specification:'Ubuntu Medium';fill:#003849;fill-opacity:1;stroke:none;stroke-width:1.54566264"
         id="path4209"
         inkscape:connector-curvature="0" />
      <path
         d="m 583.26949,410.87689 q -3.94141,-6.0637 -9.09555,-12.73377 -5.15414,-6.67007 -10.91466,-12.88536 -5.60892,-6.21529 -11.67262,-11.82421 -6.0637,-5.60892 -11.97581,-9.70192 l 0,47.14526 -19.10065,0 0,-105.05359 19.10065,0 0,43.35545 q 5.00256,-5.00255 10.45988,-10.61147 5.45733,-5.76052 10.76307,-11.52103 5.45733,-5.91211 10.30829,-11.36944 4.85096,-5.45733 8.79236,-9.85351 l 22.89047,0 q -5.00255,5.76052 -10.61147,11.97581 -5.60893,6.21529 -11.52103,12.58217 -5.91211,6.2153 -11.97581,12.43059 -5.91211,6.21529 -11.67262,11.82421 6.36688,4.85096 12.88536,11.36944 6.67007,6.36688 13.03695,13.79491 6.36689,7.27644 12.1274,15.31084 5.91211,7.88281 10.76307,15.76562 l -22.58728,0 z"
         style="font-weight:500;-inkscape-font-specification:'Ubuntu Medium';fill:#003849;fill-opacity:1;stroke:none;stroke-width:1.54566264"
         id="path4211"
         inkscape:connector-curvature="0" />
      <path
         d="m 610.24585,371.61444 q 0,-10.45988 3.03185,-18.34269 3.18344,-7.88281 8.33758,-13.03696 5.15415,-5.30573 11.82422,-7.8828 6.67006,-2.72867 13.64332,-2.72867 16.37199,0 25.46754,10.1567 9.24714,10.15669 9.24714,30.31849 0,1.51593 -0.15159,3.48663 0,1.81911 -0.1516,3.33504 l -52.2994,0 q 0.75796,9.55032 6.67007,14.85606 6.06369,5.15414 17.43313,5.15414 6.67007,0 12.1274,-1.21274 5.60892,-1.21274 8.79236,-2.57707 l 2.42548,15.00766 q -1.51592,0.75796 -4.24459,1.66751 -2.57707,0.75797 -6.0637,1.36434 -3.33503,0.75796 -7.27643,1.21274 -3.94141,0.45477 -8.03441,0.45477 -10.45988,0 -18.19109,-3.03185 -7.73122,-3.18344 -12.73377,-8.64077 -5.00256,-5.60892 -7.42803,-13.03695 -2.42548,-7.57962 -2.42548,-16.52358 z m 53.20896,-8.186 q 0,-3.78981 -1.06115,-7.12484 -1.06115,-3.48663 -3.18344,-5.91211 -1.9707,-2.57707 -5.00255,-3.9414 -2.88026,-1.51593 -6.97326,-1.51593 -4.24459,0 -7.42803,1.66752 -3.18344,1.51592 -5.45733,4.093 -2.12229,2.57707 -3.33503,5.9121 -1.21274,3.33504 -1.66752,6.82166 l 34.10831,0 z"
         style="font-weight:500;-inkscape-font-specification:'Ubuntu Medium';fill:#003849;fill-opacity:1;stroke:none;stroke-width:1.54566264"
         id="path4213"
         inkscape:connector-curvature="0" />
      <path
         d="m 696.70095,371.61444 q 0,-10.45988 3.03185,-18.34269 3.18345,-7.88281 8.33759,-13.03696 5.15414,-5.30573 11.82421,-7.8828 6.67007,-2.72867 13.64333,-2.72867 16.37199,0 25.46753,10.1567 9.24715,10.15669 9.24715,30.31849 0,1.51593 -0.1516,3.48663 0,1.81911 -0.15159,3.33504 l -52.29941,0 q 0.75797,9.55032 6.67007,14.85606 6.0637,5.15414 17.43314,5.15414 6.67007,0 12.1274,-1.21274 5.60892,-1.21274 8.79236,-2.57707 l 2.42548,15.00766 q -1.51592,0.75796 -4.24459,1.66751 -2.57707,0.75797 -6.0637,1.36434 -3.33503,0.75796 -7.27644,1.21274 -3.9414,0.45477 -8.0344,0.45477 -10.45988,0 -18.1911,-3.03185 -7.73121,-3.18344 -12.73376,-8.64077 -5.00256,-5.60892 -7.42804,-13.03695 -2.42548,-7.57962 -2.42548,-16.52358 z m 53.20897,-8.186 q 0,-3.78981 -1.06115,-7.12484 -1.06115,-3.48663 -3.18344,-5.91211 -1.97071,-2.57707 -5.00256,-3.9414 -2.88025,-1.51593 -6.97325,-1.51593 -4.24459,0 -7.42803,1.66752 -3.18344,1.51592 -5.45733,4.093 -2.1223,2.57707 -3.33504,5.9121 -1.21274,3.33504 -1.66751,6.82166 l 34.10831,0 z"
         style="font-weight:500;-inkscape-font-specification:'Ubuntu Medium';fill:#003849;fill-opacity:1;stroke:none;stroke-width:1.54566264"
         id="path4215"
         inkscape:connector-curvature="0" />
      <path
         d="m 840.15478,371.61444 q 0,-12.27899 -5.60893,-19.10065 -5.45733,-6.82167 -17.73632,-6.82167 -2.57707,0 -5.45733,0.30319 -2.72866,0.15159 -5.45733,0.90955 l 0,45.32616 q 2.42548,1.66751 6.36689,3.18344 4.093,1.36433 8.64077,1.36433 10.0051,0 14.55288,-6.82166 4.69937,-6.82166 4.69937,-18.34269 z m 18.79746,-0.30319 q 0,9.09555 -2.42548,16.67518 -2.27388,7.57962 -6.67007,13.03695 -4.39618,5.45733 -11.06625,8.48918 -6.51847,3.03185 -14.85606,3.03185 -5.60892,0 -10.30829,-1.36433 -4.69937,-1.36434 -7.73122,-3.03185 l 0,30.77327 -18.34269,0 0,-104.7504 q 5.60893,-1.51593 13.79492,-2.88026 8.18599,-1.36433 17.28154,-1.36433 9.39874,0 16.82677,2.88025 7.42803,2.88026 12.58217,8.33759 5.30574,5.30574 8.03441,13.03695 2.88025,7.57963 2.88025,17.12995 z"
         style="font-weight:500;-inkscape-font-specification:'Ubuntu Medium';fill:#003849;fill-opacity:1;stroke:none;stroke-width:1.54566264"
         id="path4217"
         inkscape:connector-curvature="0" />
      <path
         d="m 923.03088,348.1176 q -2.27389,-0.75796 -6.36688,-1.51592 -3.94141,-0.90956 -9.24714,-0.90956 -3.03185,0 -6.51848,0.60637 -3.33504,0.60637 -4.69937,1.06115 l 0,63.51725 -18.34269,0 0,-75.49305 q 5.30574,-1.97071 13.18855,-3.63822 8.0344,-1.81911 17.73632,-1.81911 1.81911,0 4.24459,0.30318 2.42548,0.15159 4.85096,0.60637 2.42548,0.30319 4.69936,0.90956 2.27389,0.45477 3.63822,0.90955 l -3.18344,15.46243 z"
         style="font-weight:500;-inkscape-font-specification:'Ubuntu Medium';fill:#003849;fill-opacity:1;stroke:none;stroke-width:1.54566264"
         id="path4219"
         inkscape:connector-curvature="0" />
    </g>
  </g>
</svg>
